<?xml version="1.0" encoding="UTF-8"?>
<svg xmlns="http://www.w3.org/2000/svg" viewBox="150 40 1780 1340" class="water-stylized-map" role="img" aria-label="Mapa estilizado de qualidade da água por bairros de Maravilha">
<defs>
  <filter id="soft-map-shadow" x="-15%" y="-15%" width="130%" height="130%">
    <feDropShadow dx="0" dy="18" stdDeviation="18" flood-color="#123452" flood-opacity="0.14"/>
  </filter>
</defs>
<rect class="map-background" width="2384" height="1684" rx="42"/>
<g class="map-soft-water" aria-hidden="true">
  <path d="M140 1220 C360 1080 520 1285 720 1130 C970 935 1120 1090 1320 940 C1560 760 1750 840 2240 650"/>
  <path d="M180 1320 C410 1190 560 1410 820 1255 C1010 1140 1160 1195 1370 1060 C1620 900 1810 940 2260 760"/>
</g>
<g id="limites-interativos-exatos" class="map-neighborhoods">
<g class="bairro-exato status-satisfatoria" tabindex="0" role="button" aria-label="01 - Centro" data-id="01" data-nome="Centro" transform="matrix(0, -0.179959, 0.179982, 0, 867.92, 699.76)"><title>Centro - 98.7% de conformidade</title><path d="M 453.263 7.762 C 448.733 12.018, 442.138 19.034, 438.607 23.353 C 427.732 36.657, 424.719 47.769, 418.009 99.324 C 415.590 117.908, 414.177 125.061, 410.404 137.824 C 407.855 146.446, 402.648 160.700, 398.832 169.500 C 392.193 184.812, 391.673 185.661, 386.742 189.252 C 379.509 194.519, 368.343 197.669, 353.840 198.534 L 342.180 199.229 341.565 205.864 C 341.226 209.514, 334.429 302.050, 326.459 411.500 C 318.489 520.950, 305.458 696.225, 297.500 801 C 289.543 905.775, 277.617 1065.300, 270.999 1155.500 C 264.380 1245.700, 252.455 1405.225, 244.499 1510 C 236.542 1614.775, 224.182 1780.375, 217.031 1878 C 209.880 1975.625, 200.873 2097.319, 197.017 2148.431 L 190.005 2241.362 177.350 2264.431 C 170.391 2277.119, 164.588 2287.639, 164.456 2287.808 C 164.324 2287.978, 136.830 2300.488, 103.358 2315.608 C 69.886 2330.729, 41.375 2343.836, 40 2344.735 C 37.784 2346.185, 4.553 2373.369, 1.174 2376.496 C 0.110 2377.481, 4.637 2379.508, 24.174 2386.794 C 46.958 2395.291, 138.681 2428.028, 171 2439.198 C 178.975 2441.954, 191.125 2446.373, 198 2449.018 C 219.679 2457.359, 364.021 2508.907, 441 2535.801 C 483.189 2550.540, 553.141 2575.485, 617 2598.564 C 648.075 2609.794, 698.475 2627.921, 729 2638.845 C 769.229 2653.242, 784.413 2659.091, 784.185 2660.104 C 784.012 2660.872, 767.710 2706.248, 747.958 2760.939 C 728.206 2815.631, 712.194 2860.527, 712.375 2860.708 C 712.556 2860.889, 730.208 2867.048, 751.602 2874.395 C 796.817 2889.921, 1090.333 2993.244, 1097 2995.981 C 1099.475 2996.997, 1147.625 3013.898, 1204 3033.538 C 1260.375 3053.179, 1306.833 3069.548, 1307.240 3069.914 C 1307.647 3070.280, 1309.120 3112.385, 1310.513 3163.480 C 1311.906 3214.574, 1313.210 3256.543, 1313.411 3256.744 C 1313.612 3256.945, 1324.964 3256.634, 1338.638 3256.053 C 1352.312 3255.471, 1379.925 3254.311, 1400 3253.473 C 1457.928 3251.057, 1476.174 3250.160, 1476.628 3249.706 C 1476.861 3249.473, 1476.139 3213.781, 1475.024 3170.391 C 1473.910 3127.001, 1471.192 3019.731, 1468.986 2932.013 L 1464.975 2772.525 1446.065 2722.513 C 1435.665 2695.006, 1418.749 2649.775, 1408.474 2622 C 1398.200 2594.225, 1389.052 2570.320, 1388.147 2568.879 C 1387.241 2567.437, 1369.539 2544.262, 1348.809 2517.379 C 1328.079 2490.495, 1279.766 2427.550, 1241.446 2377.500 C 1203.127 2327.450, 1156.188 2266.158, 1137.137 2241.296 C 1118.087 2216.434, 1101.024 2193.200, 1099.221 2189.665 C 1095.413 2182.201, 1093.103 2172.221, 1092.779 2161.833 C 1092.543 2154.262, 1109.165 1928.807, 1137.002 1562 C 1150.608 1382.715, 1163.357 1210.529, 1204.012 657 C 1207.305 612.175, 1210.446 572.125, 1210.993 568 C 1212.335 557.886, 1219.148 458.048, 1218.561 457.099 C 1218.306 456.686, 1216.162 455.540, 1213.798 454.553 C 1208.503 452.342, 1133.601 416.796, 957.500 332.920 C 883.250 297.556, 783.350 250.025, 735.500 227.297 L 648.500 185.973 628.500 166.240 C 617.500 155.387, 575.425 113.548, 535 73.265 L 461.500 0.024 453.263 7.762"/></g>
<g class="bairro-exato status-boa" tabindex="0" role="button" aria-label="02 - Padre Antônio" data-id="02" data-nome="Padre Antônio" transform="matrix(0, -0.180031, 0.179975, 0, 924.08, 503.56)"><title>Padre Antônio - 99% de conformidade</title><path d="M 496 0.992 C 494.625 1.443, 480.006 5.689, 463.513 10.428 L 433.526 19.043 422.013 27.845 C 413.924 34.029, 404.496 39.838, 390.309 47.378 C 371.212 57.528, 369.208 58.352, 353.309 62.594 C 322.018 70.944, 321.871 71.003, 313.070 78.937 C 304.628 86.548, 302.404 87.608, 286.500 91.601 C 281 92.982, 269.075 96.168, 260 98.682 L 243.500 103.252 223 102.646 C 211.725 102.313, 201.043 101.756, 199.262 101.408 L 196.023 100.776 195.762 140.188 L 195.500 179.599 161.580 163.803 C 142.924 155.115, 127.517 148.150, 127.341 148.325 C 127.017 148.650, 121.362 220.443, 118.506 260.500 C 117.643 272.600, 106.835 417.950, 94.488 583.500 C 82.141 749.050, 59.208 1056.850, 43.527 1267.500 C 27.845 1478.150, 13.222 1672.100, 11.031 1698.500 C 8.840 1724.900, 6.132 1759.775, 5.013 1776 C 3.893 1792.225, 2.308 1812.983, 1.489 1822.129 C -0.600 1845.459, -0.456 1858.381, 2 1868.001 C 4.814 1879.021, 7.109 1883.899, 13.649 1892.762 C 23.806 1906.526, 113.111 2023.277, 119.007 2030.500 C 124.208 2036.871, 187.274 2119.043, 221.500 2164.044 C 261.716 2216.921, 271.642 2229.845, 283.288 2244.500 C 295.425 2259.772, 296.224 2261.068, 300.868 2273 C 303.544 2279.875, 309.372 2295.625, 313.820 2308 C 321.288 2328.782, 339.417 2375.751, 340.317 2376.651 C 341.172 2377.505, 477.584 2427.215, 499.412 2434.626 C 506.513 2437.037, 512.469 2438.864, 512.647 2438.686 C 512.826 2438.508, 514.331 2420.843, 515.992 2399.431 C 517.654 2378.019, 520.557 2342.950, 522.444 2321.500 C 524.331 2300.050, 526.172 2278.382, 526.536 2273.349 L 527.197 2264.197 533.348 2265.966 C 539.435 2267.715, 555.309 2273.451, 580.500 2283.001 C 587.650 2285.712, 605.878 2292.186, 621.007 2297.388 C 636.136 2302.590, 653.798 2308.889, 660.254 2311.384 C 666.711 2313.879, 673.908 2316.430, 676.247 2317.053 C 678.586 2317.675, 694.450 2323.374, 711.500 2329.717 C 728.550 2336.059, 749.475 2343.617, 758 2346.511 C 766.525 2349.406, 787.450 2356.830, 804.500 2363.010 C 821.550 2369.190, 845.625 2377.747, 858 2382.025 C 870.375 2386.304, 889.275 2392.955, 900 2396.804 C 910.725 2400.653, 925.800 2406.058, 933.500 2408.813 C 945.124 2412.973, 959.157 2418.252, 967.165 2421.478 C 968.541 2422.032, 972.950 2413.929, 992.547 2374.824 C 1017.543 2324.949, 1053.687 2254.198, 1055.043 2252.492 C 1055.483 2251.937, 1065.041 2233.037, 1076.282 2210.492 C 1096.290 2170.364, 1097.074 2168.552, 1113.504 2124.500 C 1130.685 2078.431, 1135.198 2065.865, 1134.729 2065.395 C 1134.582 2065.248, 1127.720 2063.055, 1119.481 2060.520 C 1096.959 2053.593, 1070.608 2044.849, 1069.665 2043.990 C 1067.880 2042.365, 1072.530 2036.755, 1092.037 2017 C 1103.171 2005.725, 1115.705 1992.728, 1119.890 1988.118 C 1124.076 1983.509, 1156.300 1953.939, 1191.500 1922.409 L 1255.500 1865.081 1302 1814.527 L 1348.500 1763.973 1413.500 1706.499 L 1478.500 1649.026 1485.500 1637.032 L 1492.500 1625.039 1531.500 1592.197 C 1564.742 1564.204, 1665.164 1483.152, 1672.204 1478.633 C 1673.467 1477.822, 1697.450 1468.181, 1725.500 1457.208 C 1770.240 1439.705, 1786.550 1433.957, 1858.372 1410.378 C 1903.402 1395.595, 1940.449 1382.972, 1940.700 1382.327 C 1940.950 1381.682, 1869.045 1268.057, 1780.912 1129.827 C 1586.811 825.396, 1541.963 754.956, 1513.435 709.709 C 1482.481 660.615, 1349.183 451.197, 1294.340 365.500 C 1268.997 325.900, 1213.047 237.925, 1170.006 170 C 1101.733 62.255, 1087.091 39.396, 1083.994 35.718 C 1083.632 35.288, 1081.169 38.213, 1078.520 42.218 C 1075.872 46.223, 1073.140 49.835, 1072.451 50.245 C 1071.761 50.654, 1069.799 53.467, 1068.090 56.495 C 1066.381 59.523, 1064.811 62, 1064.602 62 C 1064.392 62, 1059.846 62.900, 1054.500 64 C 1048.375 65.260, 1040.873 66, 1034.217 66 C 1023.675 66, 1023.613 66.014, 1001.385 73.616 L 979.115 81.233 978.514 86.866 C 978.183 89.965, 977.678 94.544, 977.391 97.042 L 976.870 101.583 973.185 101.236 C 971.158 101.045, 960.050 99.772, 948.500 98.407 L 927.500 95.924 923.491 91.368 C 919.487 86.817, 919.479 86.814, 917.626 88.861 C 916.580 90.016, 910.438 92.688, 903.547 94.984 L 891.323 99.058 879.442 97.953 L 867.561 96.847 859.410 89.447 L 851.260 82.048 829.380 90.079 L 807.500 98.110 799 97.500 L 790.500 96.890 779.560 105.899 L 768.620 114.907 758.204 98.036 L 747.788 81.164 732.619 75.560 L 717.450 69.956 701.554 50.971 C 688.210 35.033, 685.084 31.836, 682.079 31.055 C 670.131 27.951, 666.556 27.111, 666.315 27.351 C 666.167 27.500, 665.612 30.679, 665.083 34.417 C 664.554 38.155, 663.981 41.337, 663.810 41.489 C 663.640 41.641, 658.325 39.795, 652 37.385 L 640.500 33.005 616.964 37.511 L 593.428 42.018 581.464 39.433 C 570.794 37.129, 567.202 35.722, 548.249 26.425 C 536.560 20.691, 526.535 16, 525.970 16 C 525.405 16, 522.368 14.713, 519.221 13.139 C 516.075 11.566, 511.216 9.531, 508.425 8.617 C 504.354 7.284, 503.021 6.266, 501.691 3.478 C 499.923 -0.230, 499.838 -0.267, 496 0.992"/></g>
<g class="bairro-exato status-excelente" tabindex="0" role="button" aria-label="03 - Progresso" data-id="03" data-nome="Progresso" transform="matrix(0, -0.180041, 0.179969, 0, 1172.24, 411.16)"><title>Progresso - 99.4% de conformidade</title><path d="M 1421 3.071 C 1416.875 4.695, 1410.168 6.962, 1406.097 8.108 C 1402.025 9.253, 1378.625 16.871, 1354.097 25.036 C 1329.568 33.200, 1299.237 43.086, 1286.694 47.003 C 1274.150 50.920, 1259.283 56.054, 1253.657 58.412 C 1248.030 60.769, 1240.967 63.508, 1237.963 64.498 C 1234.958 65.489, 1225.525 69.219, 1217 72.787 C 1208.475 76.355, 1192.426 82.747, 1181.336 86.992 C 1170.246 91.236, 1160.064 95.561, 1158.711 96.604 C 1153.154 100.885, 1129.739 119.655, 1119 128.437 C 1112.675 133.610, 1099.625 144.089, 1090 151.725 C 1080.375 159.360, 1060.712 175.346, 1046.304 187.249 C 1031.896 199.151, 1017.496 210.997, 1014.304 213.574 C 1011.112 216.150, 1003.685 222.518, 997.800 227.724 C 991.915 232.931, 985.498 238.386, 983.540 239.846 C 981.514 241.356, 976.562 247.854, 972.049 254.923 C 964.311 267.045, 963.634 267.774, 944.221 284.923 C 933.277 294.591, 904.113 320.372, 879.412 342.216 L 834.500 381.932 788.500 432.971 C 743.007 483.447, 742.197 484.277, 715.005 508.255 C 699.883 521.590, 674.233 544.427, 658.005 559.005 C 641.777 573.584, 625.504 588.139, 621.842 591.352 C 612.511 599.538, 561.198 653.169, 557.831 658.256 C 555.830 661.278, 555.395 662.636, 556.277 663.116 C 556.950 663.481, 571.675 668.132, 589 673.449 C 606.325 678.767, 621.050 683.297, 621.721 683.516 C 622.603 683.804, 622.223 685.805, 620.358 690.708 C 618.937 694.443, 610.165 718.199, 600.866 743.497 L 583.959 789.495 520.310 913.997 C 485.303 982.474, 456.592 1038.608, 456.508 1038.739 C 456.424 1038.870, 425.338 1027.779, 387.428 1014.091 C 311.541 986.691, 314.805 987.858, 138.575 925.129 C 70.416 900.867, 14.505 881.162, 14.329 881.338 C 14.103 881.563, 0 1053.970, 0 1056.501 C 0 1057.521, 31.285 1069.108, 135 1106.500 C 200.175 1129.998, 253.840 1149.535, 254.255 1149.916 C 254.670 1150.298, 257.261 1239.876, 260.012 1348.979 C 262.763 1458.082, 265.173 1547.507, 265.367 1547.701 C 265.561 1547.895, 291.504 1547.137, 323.017 1546.017 C 354.530 1544.897, 380.398 1544.097, 380.501 1544.240 C 380.604 1544.383, 359.163 1597.582, 332.855 1662.461 C 306.547 1727.339, 285.354 1780.706, 285.761 1781.054 C 287.071 1782.175, 432.941 1863.884, 520.500 1912.543 C 567.250 1938.523, 607.616 1960.981, 610.203 1962.449 L 614.906 1965.119 617.387 1960.224 C 620.265 1954.543, 687.962 1810.114, 785.995 1600.500 C 823.808 1519.650, 865.822 1429.875, 879.360 1401 L 903.975 1348.500 921.810 1265.261 C 931.620 1219.479, 939.838 1181.830, 940.073 1181.596 C 940.550 1181.120, 963.886 1185.754, 977 1188.929 C 981.675 1190.060, 985.986 1190.989, 986.580 1190.993 C 987.421 1190.998, 998.374 1177.982, 1006.500 1167.320 C 1007.050 1166.598, 1013.760 1164.643, 1021.412 1162.975 L 1035.324 1159.943 1045.912 1163.384 C 1051.735 1165.276, 1057.850 1167.121, 1059.500 1167.484 C 1061.150 1167.847, 1066.550 1170.753, 1071.500 1173.941 C 1084.881 1182.560, 1090.891 1185.644, 1097 1187.027 C 1100.025 1187.711, 1104.075 1189.044, 1106 1189.988 C 1114.982 1194.393, 1124.301 1194.732, 1130.636 1190.883 C 1133.377 1189.218, 1133.861 1188.254, 1134.474 1183.239 C 1135.741 1172.872, 1140.791 1165.562, 1159.193 1147.454 C 1171.735 1135.112, 1178.054 1129.742, 1186.560 1124.193 C 1197.097 1117.319, 1198.114 1116.885, 1208.060 1115.024 C 1215.011 1113.724, 1221.087 1111.824, 1226.242 1109.339 C 1233.162 1106.003, 1234.143 1105.177, 1235.477 1101.554 C 1236.297 1099.324, 1237.865 1090.075, 1238.961 1081 C 1241.186 1062.564, 1242.611 1054.232, 1243.818 1052.599 C 1244.265 1051.995, 1249.776 1044.842, 1256.065 1036.704 L 1267.500 1021.908 1285.068 1010.963 C 1299.939 1001.698, 1303.414 999.056, 1307.699 993.759 C 1311.896 988.571, 1312.889 986.559, 1313.503 982 C 1313.911 978.975, 1315.202 974.776, 1316.372 972.668 C 1318.257 969.274, 1320.438 967.861, 1335.468 960.303 C 1348.037 953.983, 1356.196 950.642, 1366.941 947.418 C 1380.141 943.456, 1381.737 942.724, 1384.685 939.282 C 1386.467 937.202, 1387.942 935.211, 1387.962 934.857 C 1387.983 934.504, 1393.774 929.900, 1400.831 924.626 C 1414.403 914.484, 1418.668 912.410, 1438 906.553 L 1448.500 903.372 1448.773 880.936 C 1449.028 860.073, 1441.859 520.293, 1438.521 395 C 1437.708 364.475, 1436.569 313.850, 1435.990 282.500 C 1435.411 251.150, 1433.826 175.342, 1432.469 114.037 C 1431.111 52.732, 1430 1.995, 1430 1.287 C 1430 0.579, 1429.662 0.026, 1429.250 0.058 C 1428.838 0.091, 1425.125 1.446, 1421 3.071"/></g>
<g class="bairro-exato status-boa" tabindex="0" role="button" aria-label="04 - José de Anchieta" data-id="04" data-nome="José de Anchieta" transform="matrix(0, -0.179924, 0.18, 0, 1351.16, 442.12)"><title>José de Anchieta - 98.4% de conformidade</title><path d="M 0.398 1.576 C 0.808 2.634, 8.305 22.400, 17.058 45.500 L 32.972 87.500 36.971 234.500 C 39.171 315.350, 42.549 448.325, 44.479 530 C 46.409 611.675, 48.449 694.700, 49.012 714.500 C 49.575 734.300, 53.180 866.564, 57.022 1008.421 C 60.865 1150.278, 64.159 1266.493, 64.343 1266.677 C 64.527 1266.861, 70.878 1267.871, 78.456 1268.923 C 86.034 1269.974, 92.606 1271.209, 93.061 1271.667 C 93.516 1272.125, 103.146 1293.425, 114.461 1319 L 135.034 1365.500 146.028 1402.128 L 157.022 1438.756 161.988 1475.912 L 166.955 1513.067 161.753 1523.526 L 156.552 1533.985 145.526 1538.591 C 122.927 1548.033, 125.491 1546.266, 121.929 1554.851 C 120.184 1559.058, 117.690 1564.615, 116.387 1567.200 L 114.017 1571.901 115.569 1586.677 C 116.423 1594.805, 117.206 1601.524, 117.311 1601.610 C 118.559 1602.635, 138.003 1611.684, 166.500 1624.501 C 185.750 1633.159, 203.197 1641.102, 205.270 1642.152 C 207.344 1643.202, 216.119 1649.075, 224.770 1655.202 C 243.236 1668.281, 271.928 1687.184, 281.087 1692.306 C 284.630 1694.287, 293.372 1698.359, 300.514 1701.354 C 325.785 1711.952, 344.398 1720.181, 354.026 1725.013 L 363.773 1729.904 397.268 1670.202 C 415.691 1637.366, 432.003 1608.025, 433.516 1605 C 435.030 1601.975, 440.783 1591.625, 446.300 1582 C 451.818 1572.375, 478.684 1524, 506.003 1474.500 C 533.322 1425, 584.258 1333.425, 619.195 1271 C 677.929 1166.054, 783.254 977.298, 785.828 972.372 C 786.885 970.348, 783.768 968.469, 721.720 933.722 C 685.849 913.634, 632.425 883.829, 603 867.489 C 561.758 844.586, 459.660 787.474, 458.270 786.530 C 458.144 786.444, 479.622 733.105, 506 668 C 532.378 602.895, 553.799 549.465, 553.602 549.268 C 553.405 549.072, 532.166 549.606, 506.404 550.455 C 480.643 551.305, 454.762 552, 448.892 552 L 438.219 552 437.564 532.750 C 437.204 522.163, 434.901 432.758, 432.446 334.074 C 429.990 235.390, 427.813 154.479, 427.606 154.273 C 427.111 153.778, 336.903 121.340, 317 114.500 C 308.475 111.571, 290.250 105.041, 276.500 99.991 C 262.750 94.940, 240.925 87.004, 228 82.356 C 215.075 77.708, 195.500 70.596, 184.500 66.551 C 173.500 62.506, 151.450 54.589, 135.500 48.957 C 119.550 43.325, 97.500 35.364, 86.500 31.266 C 75.500 27.168, 52.325 18.712, 35 12.476 C 17.675 6.239, 2.634 0.802, 1.576 0.394 C -0.027 -0.224, -0.223 -0.027, 0.398 1.576"/></g>
<g class="bairro-exato status-satisfatoria" tabindex="0" role="button" aria-label="05 - União" data-id="05" data-nome="União" transform="matrix(0, -0.180041, 0.179977, 0, 1382.72, 653.08)"><title>União - 97.8% de conformidade</title><path d="M 445.311 22.250 C 440.890 34.488, 436.583 46.525, 435.740 49 C 434.897 51.475, 432.522 57.775, 430.461 63 C 428.401 68.225, 421.874 86.450, 415.958 103.500 C 406.212 131.583, 402.644 141.580, 389.013 179 C 386.709 185.325, 379.281 206.475, 372.506 226 C 365.732 245.525, 357.847 267.800, 354.984 275.500 C 352.121 283.200, 343.810 306.375, 336.515 327 C 329.219 347.625, 320.979 370.575, 318.202 378 C 315.425 385.425, 306.186 411.300, 297.672 435.500 C 289.157 459.700, 280.303 484.450, 277.995 490.500 C 275.688 496.550, 270.294 511.625, 266.009 524 C 252.754 562.277, 227.377 633.032, 214.721 667 C 209.496 681.025, 202.064 701.725, 198.206 713 C 194.348 724.275, 189.079 739.125, 186.498 746 C 181.981 758.030, 164.663 806.758, 144.027 865.500 C 138.617 880.900, 131.261 901.375, 127.681 911 C 124.100 920.625, 115.237 945.368, 107.986 965.984 C 100.734 986.599, 92.413 1009.774, 89.495 1017.484 C 86.576 1025.193, 81.275 1040.050, 77.714 1050.500 C 74.154 1060.950, 67.586 1079.259, 63.120 1091.186 C 58.654 1103.114, 55 1113.295, 55 1113.811 C 55 1115.782, 32.847 1177.835, 18.518 1216 C 15.524 1223.975, 12.620 1232.303, 12.064 1234.507 C 11.508 1236.711, 8.562 1245.218, 5.516 1253.413 C 2.470 1261.607, 0.095 1268.428, 0.239 1268.572 C 0.382 1268.715, 2.879 1269.770, 5.787 1270.916 C 8.695 1272.062, 13.267 1273, 15.946 1273 C 19.798 1273, 22.880 1271.961, 30.659 1268.041 C 36.072 1265.314, 44.473 1260.026, 49.329 1256.291 C 61.931 1246.598, 67.713 1243.201, 73.745 1241.949 C 81.563 1240.326, 101.346 1243.448, 141.070 1252.572 C 146.884 1253.907, 152.134 1255, 152.737 1255 C 154.677 1255, 192.357 1275.115, 196.369 1278.292 C 199.942 1281.122, 234.457 1295.682, 243.210 1298.051 C 249.061 1299.635, 269.445 1308.775, 295.256 1321.390 C 308.322 1327.776, 319.482 1333, 320.056 1333 C 320.630 1333, 322.539 1333.736, 324.300 1334.636 C 328.101 1336.578, 351.520 1351.105, 368.843 1362.265 C 386.493 1373.636, 395.501 1377.635, 406.529 1378.996 C 411.463 1379.605, 416.414 1380.329, 417.531 1380.605 C 418.648 1380.881, 421.776 1380.610, 424.483 1380.004 C 429.155 1378.957, 429.614 1379.048, 433.509 1381.793 C 438.486 1385.301, 439.653 1385.609, 453.168 1386.974 C 465.111 1388.180, 481.765 1392.513, 491.603 1396.974 C 504.955 1403.028, 510.287 1407.192, 533.824 1429.949 C 554.004 1449.461, 557.527 1452.468, 559.961 1452.262 C 561.508 1452.130, 569.462 1454.554, 577.637 1457.647 C 585.812 1460.740, 601.001 1465.424, 611.391 1468.056 C 626.315 1471.836, 630.661 1472.604, 632.084 1471.715 C 634.257 1470.358, 635.259 1466.879, 634.429 1463.572 C 633.453 1459.684, 634.785 1457, 637.692 1457 C 639.098 1457, 643.680 1458.544, 647.874 1460.430 C 655.977 1464.075, 662.511 1465.535, 686.500 1469.062 C 713.146 1472.979, 714.546 1473.307, 714.157 1475.535 C 713.158 1481.249, 495.359 2219.859, 461.927 2330.910 C 459.209 2339.935, 457.102 2347.410, 457.243 2347.521 C 457.384 2347.631, 496.875 2369.668, 545 2396.491 C 593.125 2423.314, 665.125 2463.603, 705 2486.022 C 845.107 2564.795, 863.438 2574.961, 864.056 2574.234 C 864.400 2573.830, 906.896 2498.350, 958.492 2406.500 C 1151.769 2062.435, 1215.474 1949.178, 1222.014 1938 C 1225.714 1931.675, 1236.507 1912.325, 1245.998 1895 C 1268.485 1853.952, 1285.794 1823.254, 1288.569 1819.500 C 1289.788 1817.850, 1293.140 1811.784, 1296.017 1806.020 C 1298.895 1800.257, 1313.721 1773.707, 1328.965 1747.020 C 1344.209 1720.334, 1360.638 1691.300, 1365.475 1682.500 C 1370.311 1673.700, 1376.840 1662, 1379.982 1656.500 C 1383.125 1651, 1391.694 1635.700, 1399.024 1622.500 C 1406.355 1609.300, 1421.209 1582.750, 1432.034 1563.500 C 1442.860 1544.250, 1452.885 1526.193, 1454.313 1523.373 L 1456.909 1518.246 1451.204 1514.761 C 1448.067 1512.844, 1438.750 1507.148, 1430.500 1502.104 C 1415.577 1492.979, 1387.662 1473.910, 1383.492 1469.993 C 1382.290 1468.864, 1379.100 1467.095, 1376.403 1466.062 C 1373.707 1465.029, 1359.800 1458.718, 1345.500 1452.037 C 1331.200 1445.356, 1313.049 1436.884, 1305.164 1433.210 C 1297.279 1429.537, 1290.610 1426.179, 1290.344 1425.748 C 1290.078 1425.318, 1289.209 1418.752, 1288.413 1411.158 L 1286.965 1397.351 1291.007 1388.426 C 1298.639 1371.574, 1296.723 1373.455, 1313.500 1366.339 L 1328.500 1359.977 1334.235 1349.084 L 1339.969 1338.191 1334.923 1300.345 L 1329.877 1262.500 1318.805 1225 C 1310.829 1197.991, 1306.510 1185.058, 1303.366 1178.770 C 1300.964 1173.968, 1297.189 1165.494, 1294.975 1159.938 C 1292.762 1154.382, 1289.772 1147.511, 1288.331 1144.668 C 1286.890 1141.826, 1281.278 1129.640, 1275.860 1117.588 C 1270.442 1105.537, 1265.855 1095.522, 1265.666 1095.333 C 1265.477 1095.144, 1259.139 1094.131, 1251.583 1093.083 C 1244.026 1092.034, 1237.647 1090.981, 1237.408 1090.741 C 1237.169 1090.502, 1234.737 1028.475, 1232.004 952.903 C 1228.630 859.621, 1225.420 747.128, 1222.006 602.572 C 1219.240 485.462, 1216.828 389.495, 1216.646 389.313 C 1216.464 389.130, 1180.162 390.554, 1135.976 392.476 C 1091.790 394.398, 1055.493 395.826, 1055.316 395.649 C 1055.139 395.472, 1053.639 353.548, 1051.983 302.483 C 1050.327 251.419, 1048.810 209.477, 1048.612 209.278 C 1048.413 209.080, 976.532 183.714, 888.876 152.910 C 741.833 101.236, 707.472 89.222, 677.500 79.002 C 671.450 76.939, 662.225 73.565, 657 71.504 C 651.775 69.444, 635.125 63.596, 620 58.508 C 604.875 53.421, 586.213 46.884, 578.529 43.981 C 570.845 41.078, 562.520 38.125, 560.029 37.418 C 557.538 36.712, 546.500 32.898, 535.500 28.942 C 493.965 14.004, 476.269 7.789, 469 5.586 C 464.875 4.336, 459.758 2.567, 457.628 1.656 C 455.498 0.745, 453.664 -0, 453.552 -0 C 453.440 -0, 449.731 10.012, 445.311 22.250"/></g>
<g class="bairro-exato status-boa" tabindex="0" role="button" aria-label="06 - Bela Vista" data-id="06" data-nome="Bela Vista" transform="matrix(0, -0.179977, 0.179964, 0, 1307.84, 1059.52)"><title>Bela Vista - 98.8% de conformidade</title><path d="M 1018.571 111.716 L 930.780 223.500 804.255 351.195 C 734.667 421.427, 677.229 479.088, 676.616 479.330 C 676.002 479.573, 601.183 509.730, 510.350 546.346 C 419.518 582.962, 268.543 643.583, 174.850 681.060 C 81.158 718.536, 3.486 749.730, 2.247 750.379 C 0.127 751.489, 0.432 751.775, 7.415 755.230 C 11.496 757.250, 162.135 837.166, 342.168 932.821 C 675.293 1109.818, 839.882 1197.113, 984 1273.238 C 1028.275 1296.624, 1084.300 1326.240, 1108.500 1339.051 C 1132.700 1351.862, 1202.675 1387.913, 1264 1419.165 C 1359.334 1467.748, 1375.664 1475.766, 1376.632 1474.464 C 1377.254 1473.627, 1387.110 1453.042, 1398.534 1428.721 C 1409.958 1404.399, 1422.123 1378.552, 1425.568 1371.282 L 1431.830 1358.065 1501.463 1392.449 C 1540.369 1411.662, 1574.053 1427.680, 1577.798 1428.752 C 1586.203 1431.156, 1604.989 1434.746, 1615.500 1435.957 C 1623.556 1436.884, 1638.997 1438.076, 1668.500 1440.046 C 1690.304 1441.502, 1697.633 1442.743, 1702.472 1445.798 C 1704.688 1447.196, 1710.156 1451.841, 1714.624 1456.119 C 1719.577 1460.862, 1723.870 1464.118, 1725.624 1464.460 C 1727.206 1464.768, 1731.284 1465.916, 1734.687 1467.010 C 1738.090 1468.105, 1741.746 1469, 1742.812 1469 C 1743.877 1469, 1746.718 1469.700, 1749.124 1470.556 C 1751.531 1471.411, 1756.650 1472.805, 1760.500 1473.654 C 1783.602 1478.746, 1790.428 1480.194, 1803 1482.669 C 1816.460 1485.320, 1820.511 1487.807, 1850.500 1511.829 C 1858.750 1518.437, 1871.057 1527.318, 1877.849 1531.565 C 1889.536 1538.871, 1890.608 1539.328, 1897.849 1540.089 C 1902.057 1540.531, 1912.864 1540.916, 1921.864 1540.946 C 1937.148 1540.996, 1938.898 1541.202, 1948.364 1544.053 C 1953.939 1545.733, 1959.850 1547.502, 1961.500 1547.985 C 1963.150 1548.469, 1970.789 1549.608, 1978.475 1550.517 C 1986.161 1551.426, 1993.272 1552.611, 1994.279 1553.149 C 1995.285 1553.688, 1998.088 1554.724, 2000.508 1555.452 C 2007.766 1557.637, 2016.912 1563.325, 2027.782 1572.414 C 2033.837 1577.477, 2041.396 1582.685, 2046.187 1585.094 C 2052.887 1588.463, 2054.949 1589.070, 2057.909 1588.545 C 2069.482 1586.491, 2068.680 1586.299, 2080 1593.826 C 2092.320 1602.017, 2110.815 1611.452, 2123.500 1616.017 C 2133.940 1619.774, 2150.868 1624.506, 2159.500 1626.080 C 2166.407 1627.340, 2177.261 1632.487, 2184.500 1637.936 C 2190.935 1642.779, 2199.060 1647.308, 2206 1649.920 C 2211.970 1652.167, 2215.369 1655.121, 2223.086 1664.766 C 2227.445 1670.214, 2229.430 1671.700, 2238.300 1676.153 C 2243.910 1678.970, 2250.832 1682.078, 2253.682 1683.060 L 2258.865 1684.846 2260.322 1680.673 C 2271.807 1647.780, 2342.621 1449.144, 2374.859 1359.389 C 2397.950 1295.100, 2434.173 1193.675, 2455.353 1134 C 2476.534 1074.325, 2510.758 978.502, 2531.408 921.059 C 2552.057 863.617, 2568.798 816.464, 2568.609 816.275 C 2568.231 815.897, 2270.507 711.956, 2238.500 701.028 C 2214.513 692.838, 2200.362 687.904, 2181 680.979 C 2173.025 678.126, 2163.125 674.794, 2159 673.574 C 2151.998 671.504, 2123.406 661.176, 2112.782 656.880 C 2110.188 655.831, 2102.088 652.985, 2094.782 650.556 C 2087.477 648.127, 2074.300 643.610, 2065.500 640.519 C 2056.700 637.427, 2047.025 634.059, 2044 633.034 C 2040.975 632.009, 2029.275 627.963, 2018 624.041 C 2006.725 620.120, 1990.975 614.714, 1983 612.028 C 1975.025 609.342, 1965.575 605.926, 1962 604.438 C 1958.425 602.950, 1953.475 601.144, 1951 600.425 C 1948.525 599.706, 1936.825 595.766, 1925 591.669 C 1913.175 587.572, 1890.763 579.870, 1875.195 574.555 L 1846.891 564.890 1838.195 570.315 C 1833.413 573.298, 1826.575 577.405, 1823 579.440 C 1819.425 581.476, 1812.675 585.414, 1808 588.191 C 1796.504 595.021, 1796.121 595.134, 1773.500 598.338 C 1765.970 599.405, 1757.453 601.613, 1746.500 605.339 C 1730.506 610.779, 1714.696 615.327, 1707.887 616.446 C 1704.531 616.997, 1703.602 616.499, 1694.887 609.485 C 1689.724 605.329, 1680.775 598.264, 1675 593.784 C 1669.225 589.304, 1659.100 581.108, 1652.500 575.569 C 1645.900 570.031, 1636.643 562.575, 1631.930 559 C 1621.567 551.140, 1602.880 536.347, 1594.664 529.500 C 1591.364 526.750, 1584.802 521.496, 1580.082 517.825 C 1575.362 514.154, 1569.700 509.615, 1567.500 507.740 C 1565.300 505.864, 1535.375 482.115, 1501 454.964 C 1466.625 427.813, 1424.615 394.327, 1407.643 380.549 L 1376.787 355.500 1272.692 218 C 1181.707 97.816, 1111.192 5.266, 1107.524 1.216 C 1106.611 0.208, 1087.519 23.925, 1018.571 111.716"/></g>
<g class="bairro-exato status-boa" tabindex="0" role="button" aria-label="07 - Morada do Sol" data-id="07" data-nome="Morada do Sol" transform="matrix(0, -0.180036, 0.180047, 0, 1224.2, 860.32)"><title>Morada do Sol - 98.5% de conformidade</title><path d="M 653 2.114 C 644.379 5.200, 633.238 7.848, 624.324 8.932 C 617.574 9.752, 613.737 11.042, 602.324 16.326 C 592.089 21.065, 584.736 23.661, 574 26.324 C 564.179 28.760, 553.322 32.474, 540.357 37.834 C 521.236 45.738, 521.201 45.748, 509.489 46.479 C 500.024 47.071, 495.810 47.877, 487.632 50.659 C 482.059 52.554, 469.400 56.070, 459.500 58.470 C 444.356 62.142, 438.724 63.018, 424 63.990 C 409.057 64.977, 403.941 65.786, 388.986 69.524 C 379.353 71.932, 367.203 74.392, 361.986 74.991 C 356.769 75.590, 336.821 78.346, 317.658 81.115 C 295.613 84.301, 281.184 86.849, 278.373 88.054 C 275.930 89.102, 262.808 96.641, 249.215 104.807 C 235.622 112.974, 220.392 122.008, 215.372 124.882 C 207.278 129.516, 205.135 131.401, 196.449 141.534 C 185.308 154.531, 177.305 166.970, 149.364 214.723 C 138.494 233.300, 124.387 256.825, 118.016 267 C 111.644 277.175, 103.558 290.675, 100.046 297 C 96.534 303.325, 90.891 312.550, 87.507 317.500 C 84.122 322.450, 77.352 333.700, 72.461 342.500 C 67.571 351.300, 57.731 367.725, 50.594 379 C 43.458 390.275, 29.171 414.104, 18.845 431.952 L 0.071 464.405 2.347 467.452 C 3.598 469.129, 13.800 482.650, 25.018 497.500 C 36.235 512.350, 63.851 549.025, 86.385 579 C 108.919 608.975, 129.677 636.425, 132.513 640 C 135.349 643.575, 146.871 658.650, 158.119 673.500 C 259.411 807.234, 270.088 820.978, 276.149 825.432 C 279.092 827.594, 296.800 841.784, 315.500 856.963 C 334.200 872.143, 352.425 886.785, 356 889.501 C 359.575 892.217, 374.464 904.128, 389.086 915.970 C 403.708 927.811, 432.492 950.775, 453.050 967 C 473.608 983.225, 497.644 1002.384, 506.464 1009.576 C 518.278 1019.210, 575.721 1064.814, 596.583 1081.121 C 598.575 1082.679, 623.976 1076.587, 637 1071.428 C 645.865 1067.917, 660.343 1064.113, 669 1063.021 C 689.096 1060.485, 691.480 1059.647, 707.500 1049.481 C 710.250 1047.736, 715.875 1044.380, 720 1042.023 C 724.125 1039.667, 730.496 1036.013, 734.159 1033.904 L 740.818 1030.069 749.659 1032.944 C 765.833 1038.204, 820.367 1056.983, 829.500 1060.438 C 834.450 1062.310, 841.200 1064.722, 844.500 1065.797 C 847.800 1066.872, 854.550 1069.317, 859.500 1071.230 C 864.450 1073.144, 872.775 1075.960, 878 1077.489 C 883.225 1079.018, 914.275 1089.694, 947 1101.213 C 979.725 1112.732, 1046.775 1136.258, 1096 1153.494 C 1145.225 1170.730, 1213.850 1194.814, 1248.500 1207.013 C 1283.150 1219.213, 1331.750 1236.089, 1356.500 1244.517 C 1381.250 1252.944, 1414.972 1264.591, 1431.437 1270.399 C 1447.902 1276.208, 1461.535 1280.798, 1461.733 1280.600 C 1461.931 1280.402, 1495.765 1186.249, 1536.919 1071.370 C 1578.073 956.492, 1626.457 821.644, 1644.438 771.709 C 1662.419 721.774, 1676.989 680.185, 1676.815 679.289 C 1676.459 677.447, 1659.717 671.270, 1541.500 629.366 C 1500.250 614.744, 1414.525 584.113, 1351 561.297 C 1287.475 538.482, 1171.600 496.954, 1093.500 469.013 C 894.669 397.880, 893.995 397.637, 894.047 397.038 C 894.073 396.742, 896.556 394.531, 899.563 392.124 C 902.571 389.718, 910.760 382.846, 917.761 376.854 C 925.830 369.948, 932.871 364.831, 936.995 362.878 C 943.618 359.742, 1045.010 313.897, 1052.734 310.547 C 1056.803 308.782, 1057.474 307.787, 1069.883 285.105 L 1082.798 261.500 1089.437 169 C 1093.089 118.125, 1096.343 73.913, 1096.667 70.750 L 1097.258 65 1088.879 65.031 C 1084.271 65.048, 1077.350 65.471, 1073.500 65.972 C 1048.823 69.180, 1045.759 69.219, 1028.179 66.552 C 1019.006 65.160, 997.775 62.476, 981 60.589 C 952.989 57.437, 948.827 57.200, 930 57.689 L 909.500 58.222 898.293 46.235 C 888.264 35.510, 885.898 33.564, 875.793 27.733 C 858.830 17.945, 856.653 17, 851.077 17 C 848.325 17, 843.791 16.100, 841 15 C 837.335 13.555, 833.506 12.991, 827.213 12.967 C 822.421 12.949, 815.350 12.508, 811.500 11.986 C 807.650 11.465, 796.625 10.569, 787 9.996 C 773.423 9.188, 767.674 8.399, 761.355 6.477 C 753.781 4.173, 751.716 4, 731.855 3.995 C 719.044 3.991, 701.298 3.198, 687.500 2.011 C 674.850 0.923, 663.150 0.058, 661.500 0.089 C 659.850 0.121, 656.025 1.032, 653 2.114"/></g>
<g class="bairro-exato status-satisfatoria" tabindex="0" role="button" aria-label="08 - São José" data-id="08" data-nome="São José" transform="matrix(0, -0.179978, 0.18, 0, 732.8, 1276.72)"><title>São José - 97.6% de conformidade</title><path d="M 1555 158.662 C 1367.175 245.819, 1200 323.227, 1183.500 330.681 C 1167 338.134, 1135.275 352.796, 1113 363.263 C 1074.626 381.295, 1048.803 393.162, 1032 400.485 C 1027.875 402.283, 1016.850 407.451, 1007.500 411.969 C 998.150 416.488, 978.125 425.812, 963 432.691 C 947.875 439.569, 926.275 449.603, 915 454.988 C 903.725 460.373, 891.125 466.239, 887 468.025 C 874.220 473.556, 830.048 493.970, 819 499.452 C 813.225 502.317, 805.800 505.700, 802.500 506.969 C 799.200 508.238, 770.850 521.323, 739.500 536.048 C 682.823 562.668, 638.329 583.256, 624 589.489 C 619.875 591.284, 610.650 595.549, 603.500 598.968 C 596.350 602.387, 587.800 606.312, 584.500 607.690 C 578.084 610.370, 543.398 626.540, 512.826 641.104 C 502.555 645.997, 493.867 650, 493.520 650 C 493.173 650, 487.177 652.749, 480.195 656.109 C 473.213 659.469, 464.253 663.508, 460.285 665.084 C 456.317 666.661, 446.816 671.084, 439.172 674.914 C 425.960 681.533, 384.423 701, 383.513 701 C 383.276 701, 374.852 704.882, 364.792 709.626 C 338.455 722.045, 321.542 729.738, 313.285 733.054 C 309.317 734.647, 299.748 739.119, 292.020 742.990 C 284.292 746.861, 275.164 751.086, 271.735 752.378 C 268.306 753.670, 260.550 757.210, 254.500 760.245 C 248.450 763.280, 236.300 769.019, 227.500 772.999 C 218.700 776.978, 207.900 782.050, 203.500 784.270 C 194.120 789.002, 172.098 799.167, 156.500 805.964 C 143.714 811.536, 106.576 828.629, 62.500 849.228 C 45.450 857.197, 24.382 867.005, 15.683 871.024 C 0.386 878.091, -0.112 878.416, 0.515 880.915 C 0.872 882.337, 12.403 931.875, 26.139 991 C 52.794 1105.730, 87.463 1262.885, 124.971 1439 C 148.329 1548.675, 154.046 1572.563, 170.560 1629.500 C 184.388 1677.177, 203.739 1729.147, 226.596 1780 C 236.630 1802.324, 238.939 1806.621, 245.131 1814.500 C 262.080 1836.065, 276.366 1858.103, 284.125 1874.654 C 291.931 1891.303, 297.225 1907.280, 307.958 1946.567 C 318.645 1985.688, 327.489 2027.858, 329.230 2048 C 330.509 2062.790, 328.939 2085.110, 325.432 2102 C 323.267 2112.424, 322.911 2116.327, 323.290 2125.500 C 323.703 2135.508, 324.130 2137.492, 328.024 2147.500 C 331.667 2156.864, 333.082 2159.268, 337.541 2163.663 C 340.422 2166.503, 346.091 2170.648, 350.139 2172.874 C 366.237 2181.725, 379.877 2195.385, 398.194 2221 C 407.669 2234.250, 415.697 2247.944, 422.726 2262.844 C 433.344 2285.355, 448.996 2334.606, 459.163 2377.500 C 467.299 2411.827, 473.760 2442.867, 474.878 2453 C 477.208 2474.121, 477.211 2478.965, 474.897 2496 C 470.023 2531.887, 471.582 2546.317, 482.732 2568.498 C 488.564 2580.099, 497.506 2590.312, 509 2598.497 C 518.114 2604.987, 534.269 2622.674, 544.769 2637.657 C 560.913 2660.694, 583.720 2698.500, 594.794 2720.584 C 606.237 2743.401, 617.831 2774.454, 623.885 2798.500 C 626.855 2810.295, 628.322 2827.138, 627.651 2841.737 C 626.925 2857.523, 625.511 2871.536, 624.242 2875.503 C 620.803 2886.252, 622.497 2908.933, 627.602 2920.500 C 628.330 2922.150, 629.804 2925.607, 630.877 2928.183 C 633.868 2935.362, 647.266 2959.056, 669.505 2996.500 C 680.612 3015.200, 712.328 3071.225, 739.984 3121 C 767.640 3170.775, 794.334 3218.025, 799.303 3226 C 811.367 3245.362, 822.544 3268.338, 824.599 3278 C 826.897 3288.808, 826.026 3305.753, 822.598 3316.902 C 818.809 3329.226, 817.004 3341.072, 817.023 3353.500 C 817.049 3370.733, 817.958 3375.400, 827.645 3408 C 829.034 3412.675, 832.135 3420.129, 834.536 3424.564 C 837.892 3430.762, 840.244 3433.681, 844.701 3437.179 C 854.716 3445.039, 865.460 3449.704, 890.500 3457.062 C 896.550 3458.840, 907.350 3462.491, 914.500 3465.177 C 942.782 3475.799, 952.127 3480.246, 969.500 3491.353 C 988.016 3503.190, 994.348 3506.642, 1004.705 3510.543 L 1011.500 3513.102 1023.964 3511.497 C 1040.294 3509.393, 1046.608 3510.348, 1056.836 3516.468 L 1064.130 3520.833 1101.620 3576.667 C 1143.433 3638.939, 1211.559 3742.886, 1225.776 3766.105 L 1227.983 3769.709 1217.494 3857.524 C 1211.725 3905.822, 1207.153 3945.487, 1207.334 3945.668 C 1207.515 3945.848, 1211.901 3944.150, 1217.082 3941.892 C 1222.262 3939.635, 1301.200 3907.963, 1392.500 3871.510 C 1552.175 3807.758, 1880.892 3675.661, 1884.008 3673.995 C 1884.838 3673.551, 1942.966 3615.208, 2013.181 3544.344 L 2140.845 3415.500 2221.212 3315.994 C 2265.414 3261.266, 2302.529 3215.141, 2303.689 3213.494 C 2304.849 3211.847, 2318.734 3188.001, 2334.544 3160.501 C 2350.353 3133.002, 2366.296 3106.002, 2369.971 3100.501 C 2373.646 3095.001, 2380.408 3083.750, 2384.999 3075.500 C 2389.589 3067.250, 2396.997 3055.100, 2401.462 3048.500 C 2405.926 3041.900, 2412.015 3032.225, 2414.993 3027 C 2417.971 3021.775, 2426.611 3007.699, 2434.192 2995.721 C 2441.773 2983.743, 2453.371 2964.303, 2459.965 2952.522 C 2471.556 2931.811, 2481.745 2914.670, 2495.200 2893.242 C 2498.743 2887.601, 2505.884 2878.027, 2511.071 2871.967 L 2520.500 2860.949 2535.500 2852.778 C 2543.750 2848.285, 2557.851 2839.935, 2566.836 2834.224 C 2575.821 2828.512, 2586.055 2822.546, 2589.579 2820.964 C 2595.066 2818.503, 2601.050 2817.370, 2631.243 2813.080 C 2650.634 2810.325, 2669.337 2807.769, 2672.805 2807.400 C 2676.825 2806.972, 2678.949 2806.325, 2678.665 2805.615 C 2671.486 2787.618, 2662.066 2764.478, 2632.210 2691.500 C 2612.410 2643.100, 2580.672 2564.575, 2561.680 2517 C 2542.689 2469.425, 2521.677 2417.225, 2514.987 2401 C 2505.995 2379.191, 2459.596 2265.146, 2455.270 2254.221 C 2454.891 2253.263, 2453.853 2253.488, 2451.132 2255.118 C 2438.426 2262.732, 2406.597 2281, 2406.035 2281 C 2405.664 2281, 2399.766 2263.817, 2392.930 2242.815 C 2386.093 2221.813, 2366.069 2161.175, 2348.430 2108.065 L 2316.361 2011.500 2328.930 2010.959 C 2345.994 2010.225, 2352.954 2007.964, 2363.277 1999.798 C 2370.414 1994.153, 2371.543 1992.735, 2376.988 1982.573 L 2382.921 1971.500 2391.711 1966.831 C 2401.290 1961.741, 2412.303 1958.555, 2424 1957.487 C 2430.497 1956.893, 2431.925 1956.397, 2434.682 1953.771 C 2437.266 1951.309, 2438.077 1949.471, 2439.004 1943.973 C 2440.139 1937.246, 2440.240 1937.091, 2456.231 1917.353 C 2469.727 1900.696, 2476.403 1892.584, 2488.684 1877.916 C 2489.413 1877.044, 2490.910 1871.434, 2492.010 1865.448 C 2493.653 1856.505, 2493.822 1853.535, 2492.962 1848.788 C 2491.930 1843.098, 2491.971 1842.913, 2495.707 1836.530 L 2499.500 1830.049 2509.853 1826.562 C 2515.548 1824.645, 2522.405 1821.665, 2525.091 1819.942 C 2528.956 1817.461, 2530.229 1815.941, 2531.192 1812.654 C 2531.861 1810.369, 2532.430 1805.125, 2532.455 1801 C 2532.487 1795.574, 2533.126 1791.979, 2534.765 1788 C 2536.790 1783.081, 2539.142 1780.607, 2557.015 1764.586 C 2568.007 1754.733, 2577 1746.605, 2577 1746.523 C 2577 1746.441, 2581.719 1729.977, 2587.486 1709.937 L 2597.972 1673.500 2607.535 1664.500 L 2617.098 1655.500 2601.658 1620 C 2570.340 1547.995, 2535.103 1467.300, 2532.008 1460.500 C 2527.156 1449.839, 2502.450 1393.129, 2496.501 1379 C 2493.606 1372.125, 2486.419 1355.925, 2480.528 1343 C 2474.638 1330.075, 2462.833 1302.850, 2454.295 1282.500 C 2445.756 1262.150, 2437.524 1243.025, 2436 1240 C 2434.476 1236.975, 2429.613 1225.950, 2425.194 1215.500 C 2420.774 1205.050, 2413.707 1188.850, 2409.489 1179.500 C 2405.271 1170.150, 2397.399 1151.925, 2391.995 1139 C 2386.591 1126.075, 2379.849 1110.550, 2377.012 1104.500 C 2374.176 1098.450, 2368.470 1085.175, 2364.333 1075 C 2360.196 1064.825, 2351.713 1045.025, 2345.481 1031 C 2339.249 1016.975, 2326.293 987.275, 2316.689 965 C 2307.085 942.725, 2262.326 839.675, 2217.223 736 C 2172.120 632.325, 2083.010 427.125, 2019.202 280 C 1955.393 132.875, 1901.960 9.688, 1900.462 6.250 C 1898.964 2.813, 1897.460 0.044, 1897.119 0.098 C 1896.779 0.152, 1742.825 71.506, 1555 158.662"/></g>
<g class="bairro-exato status-boa" tabindex="0" role="button" aria-label="09 - Jardim" data-id="09" data-nome="Jardim" transform="matrix(0, -0.18, 0.18, 0, 972.32, 859.96)"><title>Jardim - 98.6% de conformidade</title><path d="M 817.351 12.661 C 812.965 19.722, 807.017 29.609, 804.132 34.632 C 800.586 40.806, 793.220 50.360, 781.390 64.128 C 764.592 83.677, 763.405 84.822, 751.696 92.736 L 739.500 100.980 729 102.521 C 723.225 103.368, 716.927 104.492, 715.004 105.018 C 712.471 105.711, 705.056 105.284, 688.076 103.465 L 664.644 100.955 658.572 102.920 C 650.992 105.371, 616.903 115.305, 603.375 119.004 C 586.801 123.536, 556.518 136.484, 523 153.368 C 505.675 162.095, 485.650 171.917, 478.500 175.195 C 462.188 182.671, 442.545 194.582, 433.784 202.308 C 428.981 206.544, 425.137 211.318, 420.284 219.074 L 413.500 229.918 395.788 238.431 C 378.122 246.921, 378.039 246.976, 363.973 259.665 C 350.452 271.862, 349.705 272.741, 345.890 280.944 C 338.163 297.556, 339.620 295.976, 329.171 299.075 C 323.015 300.901, 316.167 302.080, 309.034 302.542 C 303.089 302.927, 297.707 303.563, 297.073 303.955 C 296.227 304.478, 296.482 307.164, 298.037 314.083 L 300.154 323.500 290.042 333 L 279.930 342.500 270.505 378.924 C 265.321 398.958, 260.499 415.880, 259.790 416.529 C 259.080 417.178, 250.625 424.363, 241 432.496 C 231.375 440.629, 222.711 448.021, 221.747 448.923 C 219.187 451.316, 215.750 464.561, 216.515 469.086 C 217.230 473.321, 215.306 484.505, 213.623 485.890 C 213.005 486.398, 206.078 489.381, 198.228 492.519 L 183.956 498.224 179.910 505.035 C 175.949 511.702, 175.877 511.990, 176.513 518.673 C 177.273 526.671, 174.931 544.257, 172.766 546.815 C 164.830 556.190, 150.103 574.175, 144.775 581 C 141.125 585.675, 134.756 593.550, 130.621 598.500 C 123.656 606.840, 123.022 607.987, 121.980 614.144 C 120.472 623.052, 118.711 624.590, 109 625.482 C 97.432 626.545, 86.675 629.642, 76.127 634.946 L 66.500 639.787 60.597 651.765 C 54.699 663.733, 54.686 663.749, 47.097 668.832 C 42.918 671.631, 35.900 675.313, 31.500 677.015 C 23.671 680.044, 23.249 680.096, 11.750 679.445 C 5.287 679.078, -0 678.950, -0 679.158 C -0 679.367, 4.518 693.029, 10.039 709.519 C 15.560 726.008, 23.895 751.650, 28.561 766.500 C 33.227 781.350, 40.368 803.175, 44.430 815 C 48.492 826.825, 60.232 861.925, 70.518 893 C 80.805 924.075, 89.523 950.055, 89.891 950.734 C 90.359 951.595, 95.533 949.085, 107.031 942.419 C 128.401 930.030, 138.781 924.440, 139.328 925.027 C 139.764 925.496, 157.413 968.813, 170.487 1001.500 C 174.227 1010.850, 178.424 1021.200, 179.813 1024.500 C 188.750 1045.723, 214.956 1110.440, 218.484 1120 C 220.819 1126.325, 231.168 1152.200, 241.484 1177.500 C 251.799 1202.800, 264.863 1235.200, 270.514 1249.500 C 276.166 1263.800, 284.034 1282.925, 287.998 1292 C 291.963 1301.075, 296.458 1311.875, 297.987 1316 C 303.034 1329.610, 338.036 1417.281, 342.903 1428.500 C 345.527 1434.550, 350.715 1447.193, 354.433 1456.596 C 358.150 1465.998, 361.496 1474.185, 361.869 1474.788 C 362.347 1475.562, 364.896 1475.329, 370.523 1473.998 C 405.593 1465.702, 415.613 1464.054, 431.183 1464.018 C 440.081 1463.997, 464.199 1458.496, 486 1451.514 C 496.633 1448.109, 501.711 1447.039, 509.910 1446.476 C 519.943 1445.787, 521.011 1445.475, 539.410 1437.843 C 551.333 1432.897, 563.568 1428.634, 572 1426.489 C 579.425 1424.600, 591.883 1420.385, 599.684 1417.122 C 610.779 1412.482, 616.163 1410.830, 624.409 1409.537 C 630.207 1408.628, 639.550 1406.335, 645.172 1404.442 C 656.843 1400.512, 659.591 1400.361, 679 1402.590 C 686.535 1403.455, 705.534 1404.368, 722 1404.657 C 746.326 1405.083, 752.640 1405.492, 758 1406.990 C 767.073 1409.526, 769.457 1409.855, 787 1410.997 C 795.525 1411.552, 805.650 1412.407, 809.500 1412.899 C 813.350 1413.390, 823.025 1414.546, 831 1415.469 C 838.975 1416.391, 849.637 1418.184, 854.694 1419.452 C 862.211 1421.338, 865.774 1422.960, 874.223 1428.347 C 883.187 1434.061, 885.945 1436.545, 895.028 1447.086 L 905.500 1459.236 927 1458.693 C 947.920 1458.164, 949.067 1458.241, 969.500 1461.519 C 981.050 1463.373, 998.600 1465.590, 1008.500 1466.447 C 1018.400 1467.305, 1031.039 1468.918, 1036.588 1470.033 L 1046.675 1472.060 1063.588 1468.466 C 1077.887 1465.427, 1081.620 1464.972, 1087.750 1465.521 C 1091.737 1465.878, 1095 1465.974, 1095 1465.733 C 1095 1465.493, 1098.135 1425.292, 1101.966 1376.398 C 1105.797 1327.504, 1111.888 1246.775, 1115.500 1197 C 1119.112 1147.225, 1125.187 1066.675, 1129 1018 C 1132.812 969.325, 1141.575 851.650, 1148.474 756.500 C 1155.372 661.350, 1164.382 540.300, 1168.496 487.500 C 1172.610 434.700, 1177.559 368.325, 1179.495 340 C 1181.431 311.675, 1184.130 274.550, 1185.492 257.500 C 1189.479 207.625, 1202.023 34.690, 1201.679 34.346 C 1201.314 33.980, 1102.219 24.638, 1081.500 23.016 C 1073.800 22.413, 1058.275 21.037, 1047 19.959 C 1035.725 18.881, 1013.450 16.871, 997.500 15.493 C 981.550 14.114, 957.250 11.876, 943.500 10.519 C 915.686 7.775, 895.570 5.992, 858.500 2.985 C 844.750 1.870, 831.661 0.702, 829.413 0.389 L 825.326 -0.178 817.351 12.661"/></g>
<g class="bairro-exato status-em-atencao" tabindex="0" role="button" aria-label="10 - Madalozzo" data-id="10" data-nome="Madalozzo" transform="matrix(0, -0.179966, 0.180034, 0, 714.44, 904.96)"><title>Madalozzo - 96.4% de conformidade</title><path d="M 742.872 1.659 C 740.488 4.541, 713.480 25.774, 688.034 44.773 C 674.540 54.847, 661.925 64.369, 660 65.934 C 655.229 69.811, 629.360 89.186, 613.500 100.761 C 606.350 105.979, 599.174 111.579, 597.553 113.205 C 595.932 114.830, 593.007 117, 591.053 118.027 C 589.099 119.054, 584.125 122.617, 580 125.946 C 575.875 129.274, 570.512 133.461, 568.081 135.249 C 565.651 137.037, 560.397 140.975, 556.405 144 C 534.883 160.309, 523.689 168.746, 506.500 181.611 C 496.050 189.433, 482.100 199.968, 475.500 205.023 C 432.816 237.717, 399.755 261.869, 396.041 263.074 C 394.643 263.527, 385.989 265.280, 376.809 266.970 C 363.677 269.387, 356.799 271.295, 344.543 275.921 C 328.224 282.081, 312.801 290.361, 300.515 299.557 C 296.657 302.445, 291.700 305.299, 289.500 305.898 C 284.543 307.250, 276.886 307.271, 271.151 305.948 C 267.028 304.998, 266.373 305.180, 258.514 309.464 L 250.225 313.982 245.960 325.608 C 242.113 336.097, 240.689 338.566, 231.399 350.867 C 225.735 358.365, 220.066 365.701, 218.801 367.168 C 216.948 369.318, 194.682 386.019, 189.119 389.433 C 188.359 389.899, 180.125 392.654, 170.820 395.556 C 156.857 399.911, 152.969 401.552, 148.559 404.955 C 145.620 407.222, 140.588 412.432, 137.376 416.532 C 134.164 420.632, 129.276 425.544, 126.513 427.447 C 122.424 430.263, 118.950 431.462, 107.839 433.890 C 100.332 435.531, 87.570 437.599, 79.479 438.485 C 65.262 440.043, 64.447 440.260, 55.135 444.961 C 47.004 449.065, 42.606 452.375, 26.962 466.162 C 16.767 475.148, 6.502 484.093, 4.152 486.040 L -0.121 489.580 9.798 513.040 C 15.253 525.943, 28.954 557.650, 40.245 583.500 C 51.535 609.350, 68.212 648.050, 77.305 669.500 C 97.939 718.176, 121.758 773.405, 138.970 812.480 C 146.233 828.969, 159.767 860.289, 169.047 882.080 C 178.326 903.871, 193.303 938.530, 202.330 959.100 C 211.357 979.670, 222.006 1004.375, 225.995 1014 C 229.983 1023.625, 238.406 1043.200, 244.711 1057.500 C 251.017 1071.800, 258.790 1089.800, 261.986 1097.500 C 267.628 1111.095, 276.389 1131.040, 285.705 1151.500 C 288.209 1157, 298.090 1179.725, 307.663 1202 C 332.321 1259.377, 335.820 1267.400, 378.745 1365 C 420.861 1460.761, 436.629 1496.741, 462.015 1555 C 471.241 1576.175, 484.039 1605.395, 490.454 1619.934 C 496.869 1634.473, 505.664 1654.948, 509.997 1665.434 C 514.331 1675.920, 521.096 1691.475, 525.031 1700 C 537.410 1726.820, 549 1753.206, 549 1754.570 C 549 1755.291, 549.435 1756.151, 549.966 1756.479 C 551.296 1757.301, 550.088 1744.372, 548.459 1740.346 L 547.182 1737.192 555.341 1736.526 C 559.829 1736.159, 567.670 1735.214, 572.767 1734.425 C 580.062 1733.296, 583.082 1732.300, 586.953 1729.745 C 591.460 1726.771, 592.160 1725.748, 595.341 1717.500 C 597.250 1712.550, 598.966 1707.943, 599.156 1707.263 C 599.345 1706.583, 604.450 1701.504, 610.500 1695.977 C 622.321 1685.178, 639.225 1674.144, 653.211 1668.097 L 660.923 1664.764 675.211 1646.872 L 689.500 1628.980 701.500 1622.613 C 735.224 1604.722, 787.300 1578.854, 809.500 1568.966 C 823.250 1562.841, 842.150 1555.149, 851.500 1551.872 C 871.286 1544.936, 894.837 1538.826, 910.604 1536.536 C 921.186 1535, 922.669 1535.022, 942.119 1537.009 L 962.529 1539.094 975.913 1537.014 C 983.274 1535.869, 989.830 1534.611, 990.482 1534.217 C 991.133 1533.822, 997.991 1528.840, 1005.722 1523.145 C 1017.822 1514.232, 1020.515 1511.726, 1025.069 1505.145 C 1027.979 1500.940, 1034.253 1493.225, 1039.013 1488 C 1052.210 1473.510, 1061.125 1460.842, 1068.438 1446.183 L 1075.081 1432.866 1080.291 1433.456 C 1083.156 1433.781, 1111.825 1436.305, 1144 1439.067 C 1176.175 1441.828, 1210.375 1444.939, 1220 1445.980 C 1229.625 1447.020, 1246.500 1448.598, 1257.500 1449.487 C 1268.500 1450.375, 1316.608 1454.683, 1364.407 1459.061 C 1412.205 1463.439, 1451.467 1466.866, 1451.656 1466.678 C 1452.188 1466.145, 1467.146 1270.395, 1474.937 1162 C 1478.792 1108.375, 1482.213 1061.735, 1482.541 1058.355 L 1483.137 1052.210 1494.318 1051.532 C 1508.834 1050.652, 1519.548 1047.512, 1527.173 1041.902 C 1532.740 1037.807, 1532.975 1037.429, 1539.808 1021.614 C 1543.637 1012.751, 1548.865 998.413, 1551.426 989.751 C 1555.118 977.264, 1556.600 969.911, 1558.581 954.251 C 1562.634 922.211, 1566.620 900.394, 1570.046 891.500 C 1573.859 881.601, 1581.297 871.666, 1592.768 861.149 L 1601.308 853.319 1654.893 906.608 C 1688.075 939.606, 1708.729 959.440, 1709.136 958.698 C 1709.498 958.039, 1715.945 933.200, 1723.462 903.500 C 1730.979 873.800, 1740.249 837.806, 1744.061 823.513 L 1750.992 797.526 1747.349 791.513 C 1745.346 788.206, 1738.199 777.175, 1731.467 767 C 1716.347 744.149, 1708.289 730.208, 1707.020 724.706 C 1705.527 718.240, 1705.826 645.749, 1707.509 606 C 1709.245 564.994, 1711.388 526.043, 1713.478 497.500 C 1714.805 479.394, 1715.670 463.280, 1717.562 421.500 C 1718.197 407.476, 1716.027 362.080, 1713.929 345.500 C 1708.983 306.408, 1699.408 272.206, 1679.571 222.767 C 1665.953 188.825, 1652.457 160.742, 1632.349 124.500 C 1624.110 109.650, 1610.518 85.125, 1602.145 70 C 1593.772 54.875, 1586.152 41.529, 1585.211 40.343 C 1583.502 38.189, 1583.486 38.199, 1572.353 47.843 C 1566.223 53.154, 1558.573 60.223, 1555.353 63.551 C 1552.134 66.880, 1546.091 72.505, 1541.924 76.051 C 1529.594 86.546, 1487.232 123.879, 1462.500 146.044 C 1449.850 157.381, 1430.685 174.497, 1419.912 184.079 C 1409.138 193.660, 1389.101 211.625, 1375.385 224 C 1361.668 236.375, 1326.893 267.425, 1298.107 293 C 1269.320 318.575, 1244.009 341.075, 1241.860 343 L 1237.952 346.500 1256.938 368.988 C 1267.380 381.357, 1275.603 391.776, 1275.212 392.142 C 1273.728 393.529, 1208.333 448.330, 1204.896 451.067 L 1201.292 453.937 973.896 226.973 C 848.828 102.143, 745.993 0.007, 745.372 0.005 C 744.752 0.002, 743.627 0.746, 742.872 1.659"/></g>
<g class="bairro-exato status-em-atencao" tabindex="0" role="button" aria-label="11 - Frei Damião" data-id="11" data-nome="Frei Damião" transform="matrix(0, -0.180053, 0.179965, 0, 491.96, 973.24)"><title>Frei Damião - 96.1% de conformidade</title><path d="M 27 0.279 C 27 0.555, 22.284 144.943, 16.520 321.140 C 10.756 497.338, 4.676 689.875, 3.009 749 L -0.022 856.500 188.962 1290.290 C 292.903 1528.875, 378.314 1724.738, 378.763 1725.542 C 379.401 1726.680, 382.331 1724.723, 392.041 1716.672 C 398.893 1710.989, 409 1702.186, 414.500 1697.108 C 422.218 1689.983, 426.700 1686.759, 434.140 1682.984 C 443.599 1678.184, 444.069 1678.062, 459.134 1676.486 C 467.578 1675.603, 480.563 1673.552, 487.989 1671.929 C 504.951 1668.222, 508.798 1665.866, 517.041 1654.137 C 525.355 1642.308, 528.997 1640.054, 550.232 1633.595 C 559.875 1630.663, 568.381 1627.891, 569.133 1627.436 C 569.885 1626.982, 576.350 1622.223, 583.500 1616.862 C 596.647 1607.003, 599.029 1604.516, 615.596 1583.338 C 621.466 1575.833, 623.600 1572.033, 627.385 1562.338 L 632.007 1550.500 639.429 1546.206 L 646.850 1541.912 655.677 1543.444 C 662.468 1544.622, 665.427 1544.726, 668.502 1543.892 C 670.701 1543.296, 676.756 1539.623, 681.958 1535.729 C 687.160 1531.835, 697.285 1525.606, 704.458 1521.888 C 716.323 1515.736, 719.305 1514.678, 737.500 1510.160 C 748.500 1507.428, 761.902 1504.209, 767.283 1503.007 L 777.065 1500.821 821.783 1467.392 C 846.377 1449.006, 869.194 1431.834, 872.486 1429.232 C 875.778 1426.629, 881.403 1422.452, 884.986 1419.949 C 896.379 1411.990, 923.150 1391.850, 929.521 1386.445 C 932.901 1383.578, 939.904 1378.396, 945.083 1374.930 C 950.263 1371.464, 957.835 1365.899, 961.910 1362.564 C 965.986 1359.229, 972.093 1354.475, 975.481 1352 C 978.870 1349.525, 990.385 1340.903, 1001.071 1332.840 C 1011.757 1324.777, 1031.750 1309.694, 1045.500 1299.322 C 1117.994 1244.640, 1125 1239.107, 1125 1236.539 C 1125 1235.958, 1114.976 1225.467, 1102.725 1213.225 C 1079.662 1190.179, 1076.195 1185.926, 1056.689 1156.760 C 1051.635 1149.203, 1040.975 1133.489, 1033 1121.840 C 1025.025 1110.192, 1017.150 1098.526, 1015.500 1095.917 C 1009.060 1085.734, 992.551 1061.370, 990.486 1059 C 989.287 1057.625, 986.128 1052.900, 983.465 1048.500 C 980.801 1044.100, 977.829 1039.715, 976.859 1038.756 C 974.828 1036.746, 970.915 1030.071, 958.243 1007 C 939.461 972.804, 935.192 963.931, 933.951 956.500 C 932.743 949.264, 918.069 881.721, 913.588 862.766 C 911.019 851.904, 905.089 799.419, 892.483 676 C 889.422 646.025, 885.150 605.975, 882.990 587 C 880.831 568.025, 877.021 532.944, 874.524 509.042 C 872.027 485.140, 869.650 465.264, 869.242 464.874 C 867.920 463.609, 830.797 442.918, 821.515 438.272 C 816.557 435.791, 806.875 430.488, 800 426.489 C 793.125 422.489, 784.458 417.720, 780.740 415.889 C 777.022 414.058, 774.124 412.097, 774.301 411.530 C 774.840 409.802, 796.930 393.360, 806.618 387.476 L 815.736 381.938 823.251 365.719 C 827.433 356.693, 831.965 345.065, 833.470 339.500 C 839.308 317.919, 838.030 320.314, 848.797 310.779 C 856.697 303.783, 860.488 299.361, 868.492 287.808 C 876.516 276.226, 879.220 271.349, 882.685 262.212 C 885.040 256.004, 888.338 249.217, 890.015 247.131 C 891.776 244.940, 895.533 242.157, 898.909 240.543 L 904.755 237.750 924.307 206.111 C 942.041 177.415, 943.965 173.863, 945.001 167.915 C 946.026 162.032, 945.927 160.747, 944.042 155.429 C 942.640 151.472, 942.137 148.306, 942.531 145.912 L 943.121 142.323 923.311 139.205 C 912.415 137.489, 901.250 135.800, 898.500 135.452 C 895.750 135.103, 891.925 134.430, 890 133.956 C 886.474 133.089, 856.434 128.573, 830.500 125.012 C 814.153 122.768, 789.506 118.966, 769 115.525 C 761.025 114.187, 746.175 111.915, 736 110.476 C 725.825 109.038, 715.668 107.458, 713.428 106.966 C 707.190 105.595, 654.615 97.171, 635.500 94.479 C 604.533 90.117, 590.621 88.014, 579.500 86.014 C 573.450 84.925, 559.275 82.684, 548 81.034 C 536.725 79.383, 521.875 77.104, 515 75.969 C 508.125 74.833, 494.625 72.599, 485 71.004 C 475.375 69.408, 462.100 67.383, 455.500 66.503 C 448.900 65.623, 434.275 63.376, 423 61.511 C 411.725 59.645, 397.100 57.388, 390.500 56.494 C 383.900 55.601, 360.275 51.958, 338 48.398 C 315.725 44.838, 275 38.587, 247.500 34.506 C 207.033 28.500, 42.917 2.719, 30.250 0.378 C 28.462 0.048, 27 0.003, 27 0.279"/></g>
<g class="bairro-exato status-monitoramento" tabindex="0" role="button" aria-label="12 - Kasper" data-id="12" data-nome="Kasper" transform="matrix(0, -0.179976, 0.180017, 0, 241.28, 1298.2)"><title>Kasper - 95.8% de conformidade</title><path d="M 1081 8.156 C 1070.825 12.567, 1059.800 17.197, 1056.500 18.445 C 1046.478 22.235, 952.973 60.168, 929.500 69.967 C 917.400 75.018, 851.475 102.094, 783 130.135 C 714.525 158.176, 623.175 195.682, 580 213.482 C 536.825 231.282, 495.088 248.401, 487.250 251.526 C 479.413 254.650, 473.002 257.498, 473.004 257.853 C 473.006 258.209, 480.692 268.400, 490.083 280.500 C 501.621 295.366, 526.951 324.753, 568.192 371.120 L 629.226 439.741 645.120 464.530 C 653.861 478.165, 660.877 489.456, 660.710 489.623 C 660.466 489.868, 450.341 604.801, 419.078 621.791 C 412.177 625.541, 411.003 626.509, 412.578 627.149 C 413.635 627.580, 427.100 631.106, 442.500 634.986 C 457.900 638.867, 471.357 642.529, 472.404 643.126 C 473.452 643.722, 516.427 655.164, 567.904 668.553 C 619.382 681.942, 716.175 707.267, 783 724.830 C 892.083 753.499, 904.467 756.953, 904.182 758.631 C 904.007 759.659, 878.740 855, 848.034 970.500 C 817.327 1086, 767.556 1273.875, 737.429 1388 C 707.303 1502.125, 682.353 1595.857, 681.984 1596.294 C 681.615 1596.730, 554.455 1606.967, 399.406 1619.043 C 123.317 1640.547, 36.098 1647.569, 35.309 1648.357 C 35.093 1648.574, 56.250 1669.764, 82.325 1695.448 L 129.733 1742.146 110.116 1761.383 C 99.327 1771.964, 76.168 1794.319, 58.650 1811.060 C 41.133 1827.802, 20.749 1847.350, 13.353 1854.500 L -0.094 1867.500 15.487 1938 C 24.057 1976.775, 37.128 2036.850, 44.535 2071.500 L 58.002 2134.500 63.751 2140.016 C 66.913 2143.050, 76.127 2151.825, 84.228 2159.516 L 98.955 2173.500 100.528 2233 L 102.101 2292.500 109.016 2353.129 L 115.931 2413.757 118.029 2542.129 L 120.128 2670.500 116.563 2840.500 C 111.854 3065.028, 109.363 3204.072, 107.477 3347.549 L 105.926 3465.598 108.439 3488.049 C 109.821 3500.397, 112.999 3532.524, 115.500 3559.441 C 118.002 3586.359, 120.200 3608.533, 120.384 3608.717 C 120.568 3608.901, 124.269 3607.535, 128.609 3605.680 C 132.949 3603.825, 257.989 3545.945, 406.475 3477.057 C 554.961 3408.169, 729.561 3327.271, 794.475 3297.284 C 859.389 3267.296, 932.525 3233.419, 957 3222.001 C 981.475 3210.582, 1009.375 3197.632, 1019 3193.224 C 1028.625 3188.815, 1045.275 3181.062, 1056 3175.995 C 1066.725 3170.928, 1078.875 3165.312, 1083 3163.516 C 1096.464 3157.655, 1152.468 3131.755, 1203 3108.021 C 1230.225 3095.234, 1261.725 3080.598, 1273 3075.497 C 1284.275 3070.396, 1301.825 3062.296, 1312 3057.497 C 1322.175 3052.698, 1346.025 3041.674, 1365 3032.999 C 1383.975 3024.325, 1414.350 3010.265, 1432.500 3001.754 C 1450.650 2993.244, 1488.900 2975.584, 1517.500 2962.510 C 1575.641 2935.933, 1585.079 2931.552, 1637 2907.041 C 1657.075 2897.565, 1686.325 2884.041, 1702 2876.988 C 1734.254 2862.477, 1775.820 2843.086, 1793.567 2834.272 C 1800.130 2831.013, 1807.075 2827.748, 1809 2827.018 C 1816.301 2824.247, 1985.144 2746.440, 2000.456 2738.790 C 2009.280 2734.382, 2016.605 2730.683, 2016.734 2730.570 C 2017.009 2730.330, 2020.463 2738.297, 1905.495 2474 C 1855.852 2359.875, 1813.378 2262.492, 1811.110 2257.594 L 1806.985 2248.688 1812.005 2078.594 C 1818.533 1857.356, 1832.902 1395.764, 1833.272 1395.395 C 1833.430 1395.237, 1839.846 1395.956, 1847.530 1396.993 C 1862.929 1399.073, 1988.756 1418.600, 2012.376 1422.577 C 2020.558 1423.954, 2027.435 1424.898, 2027.659 1424.674 C 2027.883 1424.451, 2051.636 1334.320, 2080.445 1224.384 C 2157.474 930.434, 2149.207 960.738, 2154.166 954.129 C 2171.287 931.308, 2258.451 817.031, 2294.990 769.500 C 2319.513 737.600, 2348.088 700.250, 2358.489 686.500 C 2393.158 640.669, 2459.401 553.925, 2496.042 506.377 L 2503.072 497.254 2492.482 454.877 L 2481.892 412.500 2457.468 371.500 L 2433.044 330.500 2408.272 305.863 L 2383.500 281.227 2360 266.287 C 2347.075 258.069, 2335.979 251.043, 2335.343 250.672 C 2334.707 250.301, 2316.224 252.702, 2294.271 256.009 L 2254.355 262.020 2192.401 286.855 C 2158.327 300.514, 2129.558 312.166, 2128.471 312.748 C 2127.384 313.330, 2104.063 317.931, 2076.648 322.973 C 2049.233 328.014, 2018.646 333.908, 2008.678 336.070 L 1990.553 340 1911.527 323.033 C 1868.062 313.701, 1822.150 304.059, 1809.500 301.605 C 1796.850 299.152, 1773.049 293.970, 1756.610 290.091 L 1726.720 283.038 1702.110 270.021 L 1677.500 257.004 1663 243.451 C 1652.600 233.730, 1643.693 226.601, 1631.500 218.239 C 1617.494 208.634, 1612.045 205.554, 1600.560 200.749 L 1586.620 194.917 1564.060 197.528 C 1545.491 199.678, 1420.122 218.392, 1399.730 222.058 C 1395.496 222.819, 1386.180 222.670, 1364.730 221.497 C 1348.653 220.618, 1332.460 219.472, 1328.745 218.952 C 1323.294 218.188, 1318.566 216.282, 1304.245 209.073 L 1286.500 200.141 1273 184.967 L 1259.500 169.794 1202.500 126.404 L 1145.500 83.014 1116.800 73.441 C 1101.016 68.175, 1087.006 63.006, 1085.668 61.954 C 1083.855 60.527, 1083.065 58.673, 1082.565 54.670 C 1081.500 46.152, 1084.701 36.036, 1094.562 16.750 C 1101.489 3.201, 1102.779 0.013, 1101.313 0.068 C 1100.316 0.105, 1091.175 3.744, 1081 8.156"/></g>
<g class="bairro-exato status-boa" tabindex="0" role="button" aria-label="13 - Floresta" data-id="13" data-nome="Floresta" transform="matrix(0, -0.17997, 0.179972, 0, 408.08, 856.6)"><title>Floresta - 98.3% de conformidade</title><path d="M 32.500 1.617 C 29.200 2.393, 22.139 3.108, 16.808 3.206 L 7.116 3.384 5.605 12.442 C 4.307 20.227, 2.654 44.733, 2.853 53.234 C 2.888 54.738, 3.875 57.265, 5.047 58.849 C 8.501 63.521, 8.028 69.622, 3.549 78.172 C -1.926 88.623, -1.593 90.388, 9.756 111 C 14.621 119.837, 22.283 140.923, 24.462 151.472 C 26.478 161.232, 26.406 165.697, 23.919 185.157 C 21.999 200.178, 21.960 201.693, 23.418 204.751 C 25.447 209.005, 36.580 227.584, 39.447 231.500 C 42.498 235.668, 46.415 246.029, 48.456 255.338 C 50.093 262.800, 50.520 263.549, 57.338 270.937 C 61.277 275.205, 72.825 286.779, 83 296.656 L 101.500 314.615 109.523 316.307 C 118.561 318.214, 132.694 318.508, 141.566 316.974 C 156.953 314.313, 161.888 312.513, 184 301.494 C 214.850 286.121, 229.806 281.800, 252.500 281.705 C 262.247 281.664, 264.253 281.969, 270.111 284.380 C 274.839 286.326, 278.545 288.872, 283.124 293.318 C 288.222 298.267, 290.187 301.106, 292.764 307.244 C 295.648 314.117, 296 315.993, 296 324.509 C 296 335.255, 294.023 342.710, 288.710 352 C 285.716 357.235, 285.567 358.006, 285.623 368 C 285.668 376.146, 286.394 381.526, 288.859 392 C 290.607 399.425, 292.928 408.284, 294.018 411.687 C 295.108 415.090, 296 418.420, 296 419.087 C 296 421.683, 307.023 450.838, 311.186 459.253 C 319.338 475.732, 320.088 497.551, 313.564 528.500 C 312.371 534.162, 311.016 539.314, 300.419 578.500 C 298.039 587.300, 295.388 599.106, 294.528 604.734 C 293.272 612.950, 293.193 615.909, 294.126 619.734 C 294.765 622.356, 295.660 625.234, 296.115 626.130 C 297.304 628.474, 295.083 640.137, 292.997 642.500 C 292.027 643.600, 286.176 653.275, 279.995 664 C 273.814 674.725, 266.026 687.845, 262.689 693.157 C 257.090 702.067, 256.169 703.030, 250.761 705.614 C 242.686 709.474, 238.887 714.496, 233.702 728.169 C 230.234 737.313, 227.526 742.212, 219.668 753.552 C 211.807 764.899, 208.023 769.296, 200.012 776.390 C 189.074 786.077, 190.392 783.608, 184.470 805.500 C 182.975 811.029, 178.447 822.663, 174.344 831.519 L 166.923 847.539 158.212 852.969 C 149.002 858.710, 127.396 874.605, 125.201 877.255 C 124.137 878.540, 124.137 878.969, 125.201 879.639 C 125.916 880.088, 136.400 885.687, 148.500 892.080 C 160.600 898.473, 181.525 909.844, 195 917.349 C 208.475 924.853, 219.840 931.108, 220.255 931.248 C 220.671 931.389, 223.244 953.553, 225.973 980.502 C 228.702 1007.451, 232.310 1041.650, 233.991 1056.500 C 235.672 1071.350, 239.073 1103.975, 241.550 1129 C 244.027 1154.025, 248.958 1202.175, 252.508 1236 C 256.058 1269.825, 259.241 1300.200, 259.581 1303.500 C 259.922 1306.800, 261.691 1316.025, 263.512 1324 C 265.334 1331.975, 271.174 1359.425, 276.490 1385 L 286.156 1431.500 296.720 1451.500 C 302.531 1462.500, 308.520 1473.525, 310.029 1476 C 311.539 1478.475, 314.071 1482.975, 315.656 1486 C 319.477 1493.290, 331.687 1512.085, 346.726 1533.825 C 353.451 1543.546, 374.561 1574.662, 393.638 1602.971 L 428.324 1654.442 662.442 1887.971 C 791.207 2016.412, 904.656 2129.481, 914.551 2139.236 L 932.543 2156.972 970.021 2126.418 C 990.635 2109.613, 1007.831 2095.541, 1008.235 2095.147 C 1008.639 2094.753, 1000.407 2084.096, 989.943 2071.465 L 970.918 2048.500 973.800 2046 C 975.385 2044.625, 1017.366 2007.270, 1067.091 1962.988 C 1116.816 1918.706, 1161.575 1878.881, 1166.555 1874.488 C 1186.765 1856.659, 1281.466 1771.596, 1294.993 1759.122 C 1302.972 1751.763, 1310.976 1744.848, 1312.780 1743.755 L 1316.060 1741.767 1313.860 1738.134 C 1312.651 1736.135, 1303.507 1720.100, 1293.542 1702.500 C 1283.577 1684.900, 1258.197 1642.825, 1237.141 1609 C 1192.548 1537.363, 1194.603 1539.927, 1175.686 1532.338 C 1166.113 1528.498, 1163.958 1527.268, 1164.327 1525.857 C 1164.578 1524.899, 1185.026 1485.952, 1209.768 1439.308 C 1234.510 1392.663, 1255.380 1353.269, 1256.147 1351.765 L 1257.540 1349.029 1329.514 1410.005 L 1401.487 1470.980 1404.618 1467.740 C 1406.340 1465.958, 1440.079 1429.850, 1479.594 1387.500 C 1542.411 1320.177, 1670.665 1183.364, 1680.909 1172.751 L 1684.528 1169.001 1723.514 1186.606 C 1744.956 1196.289, 1769.925 1207.483, 1779 1211.483 C 1788.075 1215.482, 1800.225 1220.899, 1806 1223.520 C 1842.610 1240.136, 1905.623 1268.321, 1949 1287.482 C 1976.775 1299.751, 2005.544 1312.530, 2012.931 1315.880 C 2020.318 1319.230, 2026.500 1321.833, 2026.669 1321.664 C 2026.838 1321.495, 2019.777 1265.377, 2010.978 1196.957 C 2002.179 1128.537, 1985.066 993.569, 1972.949 897.028 C 1960.832 800.488, 1945.740 682.125, 1939.411 634 C 1933.083 585.875, 1922.316 502.002, 1915.485 447.616 C 1908.654 393.230, 1902.897 348.563, 1902.691 348.358 C 1902.128 347.795, 1872.982 352.403, 1841.500 358.033 C 1826.100 360.786, 1809.450 363.708, 1804.500 364.524 C 1768.888 370.400, 1681.957 385.395, 1352.500 442.490 C 1290.900 453.165, 1189.425 470.492, 1127 480.995 C 1064.575 491.497, 1006.075 501.456, 997 503.126 C 987.925 504.796, 959.575 509.678, 934 513.975 C 811.943 534.483, 570.582 576.179, 560.094 578.568 L 557.689 579.116 558.574 568.308 C 559.868 552.516, 559.523 543.924, 556.654 520.500 C 555.239 508.950, 553.362 492.538, 552.483 484.029 C 551.604 475.520, 549.547 459.799, 547.913 449.094 C 545.079 430.535, 544.994 429.047, 546.077 417.065 C 546.702 410.154, 548.111 401.156, 549.209 397.069 C 550.818 391.082, 551.081 387.971, 550.559 381.069 C 549.580 368.097, 547.194 358.301, 542.991 350 C 532.903 330.074, 522.850 302.973, 518.507 284 C 516.556 275.475, 513.758 265.575, 512.289 262 C 510.013 256.463, 507.683 253.524, 496.559 242.161 C 485.470 230.834, 482.323 228.226, 475.696 224.873 C 465.615 219.771, 442.769 211.818, 412.568 202.895 C 399.330 198.985, 387.600 195.219, 386.500 194.527 C 378.148 189.272, 348.401 158.809, 334.084 140.849 C 325.021 129.479, 290.365 95.724, 284 92.065 C 280.975 90.326, 275.800 87.149, 272.500 85.004 C 269.200 82.860, 264.700 80.125, 262.500 78.927 C 260.300 77.729, 254.450 73.950, 249.500 70.529 C 226.531 54.655, 215.340 48.589, 190.500 38.548 C 186.100 36.770, 180.656 34.369, 178.402 33.214 C 176.147 32.059, 171.197 30.397, 167.402 29.522 C 158.643 27.501, 127.073 18.083, 111.854 12.952 C 95.680 7.498, 75.363 3.292, 56.589 1.510 C 47.839 0.679, 40.189 0.046, 39.589 0.102 C 38.990 0.159, 35.800 0.840, 32.500 1.617"/></g>
<g class="bairro-exato status-boa" tabindex="0" role="button" aria-label="14 - Novo Bairro" data-id="14" data-nome="Novo Bairro" transform="matrix(0, -0.180033, 0.180052, 0, 602.48, 647.44)"><title>Novo Bairro - 98.1% de conformidade</title><path d="M 833.462 3.250 C 833.765 5.038, 840.533 57.575, 848.500 120 C 856.467 182.425, 863.226 234.915, 863.518 236.644 L 864.051 239.788 791.275 207.514 C 751.249 189.764, 674.402 155.391, 620.505 131.130 L 522.509 87.020 518.895 90.760 C 516.906 92.817, 480.022 132.300, 436.929 178.500 C 354.629 266.734, 309.760 314.507, 274 351.974 C 262.175 364.363, 249.541 377.771, 245.925 381.768 L 239.351 389.037 235.035 385.910 C 232.661 384.191, 227.070 379.547, 222.610 375.591 C 218.149 371.636, 200.325 356.513, 183 341.986 C 165.675 327.460, 143.850 309.022, 134.500 301.013 C 125.150 293.005, 113.225 282.896, 108 278.548 C 102.775 274.200, 97.775 270.035, 96.888 269.291 C 95.451 268.087, 94.023 270.204, 83.780 288.720 C 77.457 300.149, 64.512 324.350, 55.013 342.500 C 45.515 360.650, 35.592 379.325, 32.963 384 C 30.334 388.675, 26.364 396.325, 24.140 401 C 21.916 405.675, 15.571 417.825, 10.040 428 L -0.016 446.500 3.742 448.148 C 5.809 449.054, 11.013 451.244, 15.306 453.014 C 19.600 454.785, 25.736 458.206, 28.943 460.617 C 34.431 464.742, 36.655 468.017, 66.725 516.250 C 104.330 576.569, 109.696 585.505, 130.528 622.500 C 139.200 637.900, 159.807 674.125, 176.323 703 C 220.509 780.251, 239.458 819.971, 263.149 885 C 271.931 909.104, 277.342 933.619, 282.683 973.500 C 284.836 989.578, 285.303 997.653, 285.715 1026 C 286.207 1059.889, 286.023 1063.961, 281.454 1120 C 280.669 1129.625, 280.021 1138.200, 280.013 1139.055 C 279.997 1140.988, 284.692 1141.796, 323 1146.450 C 342.334 1148.799, 379.159 1151.849, 437.500 1155.933 C 484.800 1159.244, 527.550 1162.212, 532.500 1162.529 C 539.651 1162.987, 560.091 1161.246, 632 1154.056 C 716.897 1145.567, 735.532 1144.078, 933 1130.016 C 1048.775 1121.771, 1206.210 1110.298, 1282.856 1104.521 C 1412.648 1094.738, 1423.046 1094.085, 1434.356 1095.017 C 1441.035 1095.568, 1448.114 1096.266, 1450.087 1096.569 L 1453.673 1097.121 1459.346 1084.709 C 1470.450 1060.411, 1473 1049.994, 1473 1028.923 C 1473 1017.812, 1473.410 1013.442, 1474.905 1008.631 C 1477.779 999.377, 1479.816 989.348, 1480.515 981 C 1481.340 971.166, 1485.317 960.632, 1488.806 959.043 C 1493.472 956.916, 1503.638 948.153, 1508.107 942.404 C 1510.523 939.296, 1513.850 933.996, 1515.500 930.626 C 1518.618 924.260, 1522.284 920.873, 1533.187 914.291 C 1537.378 911.762, 1540.468 910.824, 1547.818 909.853 C 1562.118 907.963, 1564.009 908.731, 1577.480 921.895 C 1587.965 932.140, 1588.773 932.712, 1593.680 933.363 C 1599.954 934.195, 1606.711 933.241, 1609.758 931.092 C 1612.801 928.946, 1621.259 913.152, 1623.998 904.500 C 1627.354 893.899, 1628.898 891.406, 1633.540 889.087 C 1636.882 887.418, 1639.600 886.999, 1647.110 886.993 C 1657.302 886.985, 1668.945 884.664, 1678.729 880.688 C 1681.927 879.389, 1690.041 874.836, 1696.761 870.570 C 1712.829 860.370, 1719.437 858.049, 1732.500 858.019 C 1739.857 858.001, 1744.879 857.357, 1751.500 855.583 C 1759.046 853.560, 1770.852 849.480, 1771.749 848.584 C 1771.886 848.448, 1782.112 718.323, 1794.474 559.418 C 1806.836 400.513, 1820.112 230.008, 1823.975 180.517 C 1827.839 131.026, 1831 87.540, 1831 83.880 L 1831 77.227 1826.750 76.655 C 1822.894 76.135, 1777.571 72.567, 1741 69.904 C 1733.025 69.323, 1721.550 68.412, 1715.500 67.878 C 1709.450 67.345, 1698.200 66.505, 1690.500 66.012 C 1682.800 65.519, 1672.675 64.667, 1668 64.118 C 1663.325 63.570, 1651.175 62.624, 1641 62.017 C 1630.825 61.409, 1615.075 60.259, 1606 59.462 C 1588.616 57.934, 1535.207 53.834, 1509 52.015 C 1500.475 51.424, 1488.775 50.508, 1483 49.981 C 1477.225 49.454, 1466.425 48.586, 1459 48.051 C 1451.575 47.517, 1440.100 46.600, 1433.500 46.013 C 1399.997 43.037, 1127.271 21.774, 1004 12.527 C 926.725 6.730, 859.355 1.540, 854.289 0.994 C 849.224 0.447, 842.341 -0, 838.994 -0 L 832.909 -0 833.462 3.250"/></g>
<g class="bairro-exato status-satisfatoria" tabindex="0" role="button" aria-label="15 - Civemara" data-id="15" data-nome="Civemara" transform="matrix(0, -0.179948, 0.18, 0, 799.4, 598.12)"><title>Civemara - 97.9% de conformidade</title><path d="M 1132.877 0.457 C 1132.485 0.848, 1094.517 3.700, 1065.500 5.518 C 1060.550 5.828, 1053.125 6.510, 1049 7.034 C 1044.875 7.557, 1031.600 8.654, 1019.500 9.470 C 1007.400 10.286, 984.675 11.882, 969 13.015 C 953.325 14.149, 930.825 15.717, 919 16.500 C 890.950 18.358, 872.596 19.705, 850.500 21.528 C 840.600 22.345, 822.825 23.672, 811 24.478 C 799.175 25.283, 782.975 26.426, 775 27.017 C 767.025 27.609, 754.425 28.512, 747 29.025 C 739.575 29.537, 724.500 30.656, 713.500 31.510 C 702.500 32.364, 687.200 33.472, 679.500 33.972 C 671.800 34.472, 656.275 35.575, 645 36.422 C 615.627 38.631, 587.854 40.667, 562 42.508 C 490.562 47.596, 437.853 52, 358 59.555 L 268.500 68.023 206.500 64.031 C 102.166 57.313, 79.109 55.265, 19.191 47.400 C 12.422 46.511, 6.674 45.992, 6.420 46.247 C 6.165 46.501, 5.313 59.488, 4.525 75.105 C 3.738 90.722, 2.530 112.725, 1.841 124 C 1.119 135.811, 0.570 167.389, 0.544 198.500 L 0.500 252.500 3.710 259.299 C 7.659 267.666, 14.040 278.086, 24.041 292.500 C 28.239 298.550, 34.694 308.484, 38.387 314.577 L 45.100 325.653 38.074 353.577 C 34.210 368.934, 24.743 405.350, 17.037 434.500 L 3.026 487.500 43.763 527.944 L 84.500 568.388 136.500 593.056 C 165.100 606.623, 204.700 625.484, 224.500 634.968 C 244.300 644.453, 284.350 663.367, 313.500 676.999 C 342.650 690.631, 383.150 709.754, 403.500 719.493 C 423.850 729.232, 461.425 747.006, 487 758.990 C 512.575 770.974, 546.775 787.174, 563 794.990 C 579.225 802.806, 597 811.130, 602.500 813.488 C 608 815.847, 620.150 821.477, 629.500 826 C 643.716 832.877, 718.740 868.031, 722.750 869.695 C 723.738 870.105, 724 861.852, 724 830.355 L 724 790.497 689.212 728.498 C 670.078 694.399, 644.147 648.391, 631.588 626.258 L 608.753 586.016 602.840 591.138 C 599.588 593.956, 596.800 596.090, 596.644 595.880 C 595.511 594.361, 525.855 335.964, 526.399 335.302 C 526.489 335.193, 529.473 335.585, 533.031 336.173 C 539.209 337.193, 539.716 337.118, 544.291 334.512 C 546.926 333.011, 550.733 329.808, 552.751 327.394 C 556.712 322.655, 561.962 318.902, 577.405 309.771 C 582.852 306.549, 591.989 300.301, 597.708 295.886 C 603.427 291.471, 610.445 286.770, 613.303 285.439 C 619.864 282.385, 627.065 282.264, 634.213 285.090 C 637.575 286.419, 642.887 287.384, 648.801 287.740 C 657.040 288.236, 658.411 288.073, 660.801 286.313 C 667.025 281.729, 669.991 281.090, 699.634 277.949 C 709.745 276.877, 709.782 276.881, 716.240 279.809 C 722.967 282.859, 735.930 285, 747.670 285 L 753.500 285 764.404 272.114 L 775.308 259.227 784.904 255.019 C 790.182 252.704, 796.299 250.142, 798.497 249.325 C 800.695 248.508, 802.628 247.706, 802.792 247.542 C 802.956 247.377, 802.654 245.276, 802.122 242.872 C 799.436 230.752, 798.843 224.071, 799.971 218.641 C 800.597 215.626, 802.104 212.131, 803.334 210.840 C 804.561 209.553, 811.308 203.775, 818.327 198 C 825.347 192.225, 833.883 185.146, 837.295 182.270 C 840.708 179.393, 844.045 177.031, 844.711 177.020 C 847.236 176.979, 849.763 172.814, 850.234 167.921 C 850.577 164.352, 852.975 158.398, 858.770 146.729 C 867.128 129.900, 872.322 122.950, 880.068 118.234 C 885.390 114.994, 923.292 100.766, 950 91.983 C 962.925 87.732, 981.558 81.272, 991.407 77.627 C 1001.257 73.982, 1009.826 71, 1010.452 71 C 1012.423 71, 1059.131 53.485, 1067.500 49.608 C 1076.155 45.598, 1097.778 33.975, 1113 25.149 C 1123.244 19.210, 1140.469 7.502, 1145.785 2.865 L 1149.070 0 1141.201 0 C 1136.874 0, 1133.128 0.205, 1132.877 0.457"/></g>
<g class="bairro-exato status-excelente" tabindex="0" role="button" aria-label="16 - Universitário" data-id="16" data-nome="Universitário" transform="matrix(0, -0.18003, 0.18, 0, 765.92, 503.68)"><title>Universitário - 99.2% de conformidade</title><path d="M 743.912 1.445 C 736.932 3.370, 727.240 8.918, 722.398 13.760 C 720.009 16.148, 716.419 21.217, 714.419 25.023 C 711.915 29.787, 708.403 34.214, 703.141 39.235 C 698.939 43.247, 693.389 47.872, 690.808 49.514 C 684.388 53.600, 681.502 60.203, 680.529 73.031 C 680.135 78.239, 678.254 88.575, 676.351 96 C 673.746 106.161, 673.042 110.616, 673.506 114.014 C 673.845 116.497, 673.426 125.163, 672.574 133.272 C 671.389 144.556, 670.472 149.129, 668.665 152.758 C 667.367 155.366, 663.729 164.131, 660.582 172.235 C 657.434 180.339, 654.455 187.219, 653.960 187.524 C 653.466 187.830, 646.447 187.385, 638.363 186.536 L 623.663 184.992 618.582 189.040 C 609.075 196.614, 601.521 201.801, 586.500 211.069 C 558.596 228.286, 537.673 237.207, 467.010 262.014 C 448.579 268.484, 432.375 274.268, 431 274.868 C 429.625 275.467, 415.900 280.307, 400.500 285.622 C 358.418 300.147, 351.515 303.688, 342.604 315.322 C 335.247 324.927, 324.821 346.680, 324.067 354 C 323.526 359.251, 323.314 359.591, 319.398 361.500 C 317.142 362.600, 311.292 367.267, 306.398 371.872 C 301.504 376.476, 292.953 383.803, 287.396 388.153 C 281.840 392.503, 276.729 397.285, 276.040 398.781 C 273.989 403.235, 273.748 411.872, 275.380 422.459 C 276.224 427.937, 276.682 432.662, 276.397 432.959 C 276.111 433.257, 269.943 435.986, 262.689 439.024 L 249.500 444.548 241.143 454.524 C 236.546 460.011, 231.817 465.728, 230.633 467.229 L 228.481 469.959 213.491 468.866 C 200.168 467.895, 197.863 467.453, 192.779 464.887 C 187.959 462.455, 185.852 462, 179.415 462 C 167.775 462, 143.684 466.423, 132.892 470.541 L 123.656 474.066 113.455 471.033 C 101.275 467.412, 94.571 467.166, 88.710 470.126 C 86.395 471.295, 78.682 476.552, 71.571 481.807 C 64.461 487.062, 53.436 494.265, 47.071 497.814 C 37.856 502.953, 33.649 506.087, 26.411 513.203 L 17.322 522.139 9.057 521.008 C 4.510 520.385, 0.620 520.047, 0.411 520.256 C 0.075 520.592, 16.694 582.823, 27.983 623.500 C 30.272 631.750, 38.169 661.450, 45.530 689.500 C 58.532 739.040, 70.522 782.855, 71.287 783.620 C 71.494 783.827, 74.356 781.560, 77.647 778.581 L 83.631 773.166 91.566 787.792 C 95.930 795.837, 104.393 810.762, 110.374 820.959 C 116.355 831.157, 128.451 852.325, 137.253 868 C 146.056 883.675, 162.377 912.475, 173.522 932 C 184.666 951.525, 194.806 969.602, 196.054 972.172 C 198.239 976.672, 198.546 976.888, 204.411 978.064 C 207.760 978.736, 218.600 979.478, 228.500 979.713 L 246.500 980.140 258.500 976.565 C 265.100 974.598, 276.575 971.364, 284 969.379 C 291.425 967.393, 299.695 964.904, 302.378 963.848 C 305.304 962.697, 310.306 959.131, 314.878 954.940 C 320.963 949.360, 323.609 947.647, 328 946.442 C 331.025 945.613, 336.875 943.851, 341 942.527 C 345.125 941.203, 354.125 938.713, 361 936.993 C 371.895 934.268, 376.004 932.569, 393 923.764 C 407.359 916.325, 415.561 911.320, 424.110 904.778 L 435.721 895.894 468.524 886.038 L 501.327 876.182 503.130 878.341 C 504.122 879.529, 504.948 880.867, 504.967 881.316 C 505.006 882.275, 530.387 894.559, 540.500 898.513 C 544.350 900.018, 552.299 903.653, 558.165 906.591 C 565.964 910.496, 572.549 912.864, 582.665 915.402 L 596.500 918.872 604.413 916.973 C 608.765 915.928, 619.212 913.884, 627.629 912.430 L 642.933 909.787 651.510 912.890 C 656.227 914.597, 661.395 916.670, 662.994 917.497 C 664.593 918.324, 666.108 919, 666.362 919 C 666.616 919, 667.089 917.200, 667.412 915 C 667.735 912.800, 668.253 909.270, 668.562 907.155 L 669.123 903.311 673.312 904.287 C 687.701 907.639, 686.505 906.782, 701.268 924.336 C 719.423 945.924, 720.149 946.660, 724.089 947.483 C 725.965 947.875, 732.257 950.184, 738.070 952.615 C 748.298 956.893, 748.800 957.251, 753.570 963.679 C 756.282 967.332, 759.402 971.936, 760.505 973.911 C 761.608 975.885, 764.501 980.534, 766.934 984.243 C 770.778 990.101, 771.564 990.814, 772.929 989.674 C 773.793 988.952, 778.664 984.847, 783.753 980.552 L 793.007 972.742 800.918 973.432 C 808.339 974.080, 809.502 973.894, 819.665 970.433 C 825.624 968.404, 835.883 964.770, 842.463 962.357 L 854.426 957.970 861.963 965.428 L 869.500 972.886 881.500 973.966 L 893.500 975.045 905.250 971.091 C 911.712 968.916, 918.284 966.222, 919.855 965.103 L 922.711 963.070 925.867 967.464 C 928.743 971.468, 929.488 971.912, 934.261 972.456 C 937.143 972.784, 947.375 973.923, 957 974.987 C 966.625 976.051, 975.893 977.206, 977.595 977.555 L 980.690 978.188 981.595 967.423 L 982.500 956.659 1003 949.692 L 1023.500 942.725 1038.500 941.936 C 1047.473 941.465, 1056.200 940.415, 1060.219 939.324 L 1066.937 937.500 1076.734 924.393 L 1086.530 911.285 1104.916 940.393 C 1115.029 956.402, 1136.363 990.339, 1152.325 1015.809 L 1181.348 1062.119 1191.931 1051.569 L 1202.513 1041.019 1211.007 1047.063 L 1219.500 1053.107 1230.500 1052.432 C 1241.244 1051.772, 1241.750 1051.631, 1252.250 1046.370 L 1263 1040.983 1263 1018.011 L 1263 995.038 1265.250 994.536 C 1270.877 993.280, 1285.408 991.075, 1285.758 991.424 C 1285.971 991.638, 1287.214 998.492, 1288.520 1006.656 C 1290.476 1018.881, 1291.566 1022.887, 1294.697 1029.362 C 1298.477 1037.177, 1298.546 1037.248, 1306.146 1041.071 C 1312.043 1044.038, 1315.787 1045.166, 1322.512 1046.002 C 1330.857 1047.038, 1331.928 1046.933, 1347.384 1043.540 L 1363.536 1039.995 1385.878 1047.459 C 1404.363 1053.634, 1410.727 1055.288, 1422.735 1057.034 C 1432.150 1058.403, 1439.920 1060.173, 1444.852 1062.072 C 1450.803 1064.364, 1454.068 1065, 1459.881 1065 C 1466.521 1065, 1467.976 1064.626, 1473.616 1061.472 C 1479.808 1058.009, 1480.041 1057.963, 1486.212 1058.965 C 1489.671 1059.526, 1495.252 1059.988, 1498.615 1059.992 C 1502.973 1059.998, 1505.416 1060.522, 1507.115 1061.816 C 1518.682 1070.624, 1521.461 1071.972, 1532.039 1073.905 C 1537.792 1074.957, 1549.242 1076.338, 1557.482 1076.975 C 1565.722 1077.611, 1572.697 1078.487, 1572.982 1078.922 C 1579.347 1088.622, 1581.602 1091.083, 1584.921 1091.954 C 1597.054 1095.135, 1719.725 1128.031, 1827.500 1157.005 C 2007.690 1205.446, 2032.323 1212.010, 2032.656 1211.677 C 2032.819 1211.514, 1985.684 1080.907, 1927.910 921.440 C 1870.136 761.973, 1806.476 585.642, 1786.442 529.592 C 1766.409 473.543, 1749.876 427.543, 1749.703 427.370 C 1749.438 427.105, 1623.279 472.584, 1555.500 497.378 C 1544.500 501.402, 1533.475 505.254, 1531 505.939 C 1528.525 506.624, 1519.300 510.023, 1510.500 513.493 C 1501.700 516.964, 1483.925 523.411, 1471 527.822 C 1446.472 536.192, 1418.026 546.444, 1390 557.014 C 1380.925 560.437, 1361.800 567.416, 1347.500 572.522 C 1333.200 577.628, 1314.075 584.591, 1305 587.995 C 1295.925 591.398, 1282.200 596.343, 1274.500 598.983 C 1266.800 601.622, 1250.714 607.427, 1238.753 611.882 C 1226.792 616.337, 1207.892 623.091, 1196.753 626.892 C 1185.614 630.693, 1155.125 641.656, 1129 651.255 C 1102.875 660.854, 1073.175 671.742, 1063 675.450 C 1052.825 679.159, 1035.275 685.583, 1024 689.726 C 1012.725 693.868, 996.075 699.853, 987 703.025 C 977.925 706.197, 969.825 709.053, 969 709.372 C 967.882 709.804, 962.042 700.978, 946.076 674.726 C 934.293 655.352, 910.731 616.775, 893.716 589 C 876.702 561.225, 852.932 522.305, 840.895 502.510 L 819.008 466.521 902.503 424.736 L 985.998 382.952 982.115 375.226 C 979.980 370.977, 961.710 332.400, 941.515 289.500 C 921.321 246.600, 894.072 189.225, 880.961 162 C 867.851 134.775, 847.695 92.713, 836.171 68.528 L 815.218 24.556 803.359 24.795 L 791.500 25.033 779.229 13.558 C 770.621 5.507, 765.845 1.773, 763.229 1.047 C 758.330 -0.314, 749.637 -0.135, 743.912 1.445"/></g>
<g class="bairro-exato status-satisfatoria" tabindex="0" role="button" aria-label="17 - Industrial" data-id="17" data-nome="Industrial" transform="matrix(0, -0.18, 0.179965, 0, 289.04, 514.24)"><title>Industrial - 97.2% de conformidade</title><path d="M 1036 17.577 C 1010.975 27.148, 966.650 43.811, 937.500 54.605 C 866.999 80.713, 499.377 218.565, 433 243.784 C 375.334 265.694, 286.376 298.759, 281.250 300.188 L 278 301.094 278 348.274 L 278 395.455 269.965 436.977 C 265.545 459.815, 260.350 486.600, 258.420 496.500 C 256.276 507.500, 251.785 540.361, 246.872 581 C 239.656 640.688, 238.744 650.215, 237.973 674 C 236.759 711.434, 236.808 751.972, 238.097 776.500 C 239.473 802.693, 241.545 811.923, 250.443 831.500 C 257.344 846.685, 259.561 855.412, 262.507 879 C 264.149 892.151, 266.312 900.839, 273.458 923 C 275.852 930.425, 278.759 940.439, 279.917 945.254 C 281.803 953.092, 281.876 954.362, 280.607 957.397 C 279.263 960.615, 278.818 960.849, 271.846 961.997 C 267.805 962.662, 255.275 964.926, 244 967.028 C 222.348 971.064, 175.950 979.033, 67.310 997.373 C 30.905 1003.519, 0.863 1008.804, 0.550 1009.117 C 0.236 1009.431, 0.900 1021.679, 2.025 1036.336 C 3.621 1057.144, 12.608 1127.468, 43.021 1357.146 C 64.444 1518.934, 82.129 1651.463, 82.321 1651.654 C 82.790 1652.124, 155.636 1658.399, 190.500 1660.974 C 229.285 1663.839, 252.170 1665.778, 268 1667.541 C 275.425 1668.369, 369.250 1676.468, 476.500 1685.540 C 583.750 1694.611, 721.450 1706.517, 782.500 1711.996 C 843.550 1717.474, 936.250 1725.559, 988.500 1729.962 C 1040.750 1734.364, 1086.537 1738.244, 1090.250 1738.585 C 1093.963 1738.925, 1097 1738.960, 1097 1738.662 C 1097 1735.474, 1106.144 1621.331, 1109.991 1576.500 C 1112.728 1544.600, 1121.734 1430.300, 1130.005 1322.500 C 1145.984 1114.240, 1161.454 920.569, 1162.729 912.816 L 1163.500 908.132 1188 929.558 C 1205.831 945.151, 1213.391 951.153, 1215.773 951.608 C 1217.646 951.964, 1221.881 951.519, 1225.672 950.567 C 1232.707 948.800, 1252.153 947.078, 1265.616 947.029 L 1273.731 947 1282.092 953.250 C 1291.008 959.914, 1312.419 982.518, 1316.710 989.795 C 1318.103 992.158, 1319.411 993.922, 1319.617 993.716 C 1320.147 993.186, 1316.514 960.559, 1304.506 858 C 1291.189 744.264, 1278.378 632.704, 1277.002 618.500 C 1276.416 612.450, 1274.380 594, 1272.477 577.500 C 1270.575 561, 1267.685 535.350, 1266.057 520.500 L 1263.096 493.500 1249.441 456.500 C 1241.931 436.150, 1231.602 408.025, 1226.489 394 C 1221.375 379.975, 1215.547 364.225, 1213.538 359 C 1210.106 350.078, 1174.327 251.540, 1167.788 233 C 1166.139 228.325, 1149.938 184, 1131.786 134.500 C 1113.633 85, 1095.632 35.725, 1091.784 25 C 1087.935 14.275, 1084.340 4.263, 1083.795 2.750 C 1083.250 1.237, 1082.511 0.039, 1082.152 0.087 C 1081.793 0.135, 1061.025 8.006, 1036 17.577"/></g>
</g>
<g class="map-labels">
<text class="map-label" data-label-id="01" x="1161.0" y="566.9" style="font-size:34.0px"><tspan x="1161.0" dy="0em">Centro</tspan></text>
<text class="map-label" data-label-id="02" x="1143.5" y="316.7" style="font-size:34.0px"><tspan x="1143.5" dy="0em">Padre</tspan><tspan x="1143.5" dy="1.05em">Antônio</tspan></text>
<text class="map-label" data-label-id="03" x="1349.1" y="280.7" style="font-size:34.0px"><tspan x="1349.1" dy="0em">Progresso</tspan></text>
<text class="map-label" data-label-id="04" x="1506.8" y="359.1" style="font-size:34.0px"><tspan x="1506.8" dy="0em">José de</tspan><tspan x="1506.8" dy="1.05em">Anchieta</tspan></text>
<text class="map-label" data-label-id="05" x="1614.4" y="521.9" style="font-size:34.0px"><tspan x="1614.4" dy="0em">União</tspan></text>
<text class="map-label" data-label-id="06" x="1459.5" y="828.3" style="font-size:34.0px"><tspan x="1459.5" dy="0em">Bela Vista</tspan></text>
<text class="map-label" data-label-id="07" x="1339.5" y="697.1" style="font-size:34.0px"><tspan x="1339.5" dy="0em">Morada do</tspan><tspan x="1339.5" dy="1.05em">Sol</tspan></text>
<text class="map-label" data-label-id="08" x="1087.9" y="1035.7" style="font-size:34.0px"><tspan x="1087.9" dy="0em">São José</tspan></text>
<text class="map-label" data-label-id="09" x="1105.1" y="751.8" style="font-size:34.0px"><tspan x="1105.1" dy="0em">Jardim</tspan></text>
<text class="map-label" data-label-id="10" x="872.6" y="747.4" style="font-size:34.0px"><tspan x="872.6" dy="0em">Madalozzo</tspan></text>
<text class="map-label" data-label-id="11" x="647.3" y="872.0" style="font-size:34.0px"><tspan x="647.3" dy="0em">Frei Damião</tspan></text>
<text class="map-label" data-label-id="12" x="566.1" y="1073.0" style="font-size:34.0px"><tspan x="566.1" dy="0em">Kasper</tspan></text>
<text class="map-label" data-label-id="13" x="602.2" y="674.4" style="font-size:34.0px"><tspan x="602.2" dy="0em">Floresta</tspan></text>
<text class="map-label" data-label-id="14" x="707.2" y="482.6" style="font-size:32.2px"><tspan x="707.2" dy="0em">Novo Bairro</tspan></text>
<text class="map-label" data-label-id="15" x="877.7" y="494.7" style="font-size:24.1px"><tspan x="877.7" dy="0em">Civemara</tspan></text>
<text class="map-label" data-label-id="16" x="875.0" y="320.7" style="font-size:33.6px"><tspan x="875.0" dy="0em">Universitário</tspan></text>
<text class="map-label" data-label-id="17" x="445.5" y="395.4" style="font-size:34.0px"><tspan x="445.5" dy="0em">Industrial</tspan></text>
</g>
</svg>
